<svg xmlns="http://www.w3.org/2000/svg" width="1920" height="1080" viewBox="0 0 1920 1080">
  <rect width="1920" height="1080" fill="#101827" />
  <rect x="80" y="80" width="1760" height="920" rx="28" fill="#0d1623" stroke="#334155" stroke-width="2" />
  <text x="120" y="164" fill="#f8fafc" font-family="Arial, sans-serif" font-size="66" font-weight="700">生態条件が重なった</text>
  <text x="120" y="224" fill="#94a3b8" font-family="Arial, sans-serif" font-size="32">不作と森林劣化と暖秋が、行動圏を外へ押し出した。</text>
  <circle cx="530" cy="604" r="230" fill="#17311e" stroke="#3f6212" stroke-width="6" />
  <circle cx="960" cy="460" r="230" fill="#1e293b" stroke="#64748b" stroke-width="6" />
  <circle cx="1390" cy="604" r="230" fill="#3a2415" stroke="#f97316" stroke-width="6" />
  <text x="394" y="570" fill="#f8fafc" font-family="Arial, sans-serif" font-size="38" font-weight="700">食料圧力</text>
  <text x="358" y="624" fill="#cbd5e1" font-family="Arial, sans-serif" font-size="28">堅果類不作</text>
  <text x="350" y="664" fill="#cbd5e1" font-family="Arial, sans-serif" font-size="28">餌不足</text>
  <text x="846" y="426" fill="#f8fafc" font-family="Arial, sans-serif" font-size="38" font-weight="700">森林劣化</text>
  <text x="820" y="480" fill="#cbd5e1" font-family="Arial, sans-serif" font-size="28">ナラ類衰退</text>
  <text x="794" y="520" fill="#cbd5e1" font-family="Arial, sans-serif" font-size="28">ナラ枯れ</text>
  <text x="1266" y="570" fill="#f8fafc" font-family="Arial, sans-serif" font-size="38" font-weight="700">長い活動期</text>
  <text x="1224" y="624" fill="#cbd5e1" font-family="Arial, sans-serif" font-size="28">暖秋</text>
  <text x="1208" y="664" fill="#cbd5e1" font-family="Arial, sans-serif" font-size="28">冬眠が遅れる</text>
  <path d="M682 536 C760 500 818 482 882 470" fill="none" stroke="#f8fafc" stroke-width="8" stroke-linecap="round" />
  <path d="M1038 470 C1100 482 1162 500 1238 536" fill="none" stroke="#f8fafc" stroke-width="8" stroke-linecap="round" />
  <path d="M804 726 C892 758 1024 758 1112 726" fill="none" stroke="#fb7185" stroke-width="10" stroke-linecap="round" />
  <rect x="660" y="772" width="602" height="148" rx="20" fill="#111827" stroke="#334155" />
  <text x="700" y="836" fill="#f8fafc" font-family="Arial, sans-serif" font-size="34" font-weight="700">結果</text>
  <text x="700" y="886" fill="#fb7185" font-family="Arial, sans-serif" font-size="34">探索増加・移動拡大・人との接触増</text>
</svg>
