<svg xmlns="http://www.w3.org/2000/svg" viewBox="0 0 1920 1080">
  <defs>
    <linearGradient id="bg5" x1="0%" y1="0%" x2="100%" y2="100%">
      <stop offset="0%" stop-color="#0b1324"/>
      <stop offset="100%" stop-color="#101827"/>
    </linearGradient>
  </defs>
  <rect width="1920" height="1080" fill="url(#bg5)"/>
  <rect x="310" y="170" width="1300" height="720" rx="42" fill="#111827" stroke="#334155" stroke-width="4"/>
  <rect x="500" y="280" width="920" height="130" rx="30" fill="#0f172a" stroke="#38bdf8" stroke-width="4"/>
  <rect x="500" y="470" width="920" height="130" rx="30" fill="#0f172a" stroke="#f97316" stroke-width="4"/>
  <rect x="500" y="660" width="920" height="130" rx="30" fill="#0f172a" stroke="#ef4444" stroke-width="4"/>
  <circle cx="960" cy="165" r="90" fill="#facc15" opacity="0.15"/>
  <path d="M960 170c-72 0-130 58-130 130v68h260v-68c0-72-58-130-130-130zm0 80c28 0 50 22 50 50v28H910v-28c0-28 22-50 50-50z" fill="#f8fafc" opacity="0.85"/>
  <g opacity="0.18">
    <circle cx="420" cy="840" r="120" fill="#38bdf8"/>
    <circle cx="1520" cy="840" r="140" fill="#ef4444"/>
  </g>
</svg>
