<svg width="1920" height="1080" viewBox="0 0 1920 1080" fill="none" xmlns="http://www.w3.org/2000/svg">
  <rect width="1920" height="1080" fill="#08121E"/>
  <rect width="1920" height="1080" fill="url(#paint0_radial)"/>
  <rect x="150" y="150" width="1620" height="780" rx="34" fill="#0B1828" stroke="#1E3A56" stroke-width="4"/>
  <rect x="240" y="250" width="1440" height="120" rx="22" fill="#102235"/>
  <path d="M240 440H1680" stroke="#1E3A56" stroke-width="4"/>
  <path d="M240 590H1680" stroke="#1E3A56" stroke-width="4"/>
  <path d="M240 740H1680" stroke="#1E3A56" stroke-width="4"/>
  <rect x="290" y="280" width="300" height="60" rx="14" fill="#38BDF8" fill-opacity="0.2"/>
  <rect x="670" y="280" width="320" height="60" rx="14" fill="#F97316" fill-opacity="0.2"/>
  <rect x="1080" y="280" width="290" height="60" rx="14" fill="#FACC15" fill-opacity="0.2"/>
  <rect x="1410" y="280" width="180" height="60" rx="14" fill="#34D399" fill-opacity="0.2"/>
  <rect x="300" y="470" width="420" height="86" rx="18" fill="#0F2439"/>
  <rect x="300" y="620" width="580" height="86" rx="18" fill="#0F2439"/>
  <rect x="300" y="770" width="500" height="86" rx="18" fill="#0F2439"/>
  <rect x="1040" y="470" width="360" height="86" rx="18" fill="#152B44"/>
  <rect x="1040" y="620" width="500" height="86" rx="18" fill="#152B44"/>
  <rect x="1040" y="770" width="420" height="86" rx="18" fill="#152B44"/>
  <circle cx="1570" cy="196" r="84" fill="#38BDF8" fill-opacity="0.12"/>
  <defs>
    <radialGradient id="paint0_radial" cx="0" cy="0" r="1" gradientUnits="userSpaceOnUse" gradientTransform="translate(1520 150) rotate(126.772) scale(744.781 927.882)">
      <stop stop-color="#153658"/>
      <stop offset="1" stop-color="#08121E" stop-opacity="0"/>
    </radialGradient>
  </defs>
</svg>
