<svg width="1920" height="1080" viewBox="0 0 1920 1080" fill="none" xmlns="http://www.w3.org/2000/svg">
  <rect width="1920" height="1080" fill="#08121E"/>
  <rect width="1920" height="1080" fill="url(#paint0_radial)"/>
  <path d="M0 840C180 780 320 760 540 792C760 824 980 924 1180 910C1380 896 1570 790 1920 820V1080H0V840Z" fill="#102436"/>
  <path d="M0 910C210 866 420 854 630 892C840 930 1040 992 1260 980C1480 968 1660 874 1920 902V1080H0V910Z" fill="#15324A"/>
  <path d="M140 842H1780" stroke="#E8EEF6" stroke-opacity="0.18" stroke-width="18" stroke-linecap="round"/>
  <path d="M240 842H340" stroke="#F8FAFC" stroke-opacity="0.35" stroke-width="8" stroke-linecap="round"/>
  <path d="M430 842H530" stroke="#F8FAFC" stroke-opacity="0.35" stroke-width="8" stroke-linecap="round"/>
  <path d="M620 842H720" stroke="#F8FAFC" stroke-opacity="0.35" stroke-width="8" stroke-linecap="round"/>
  <path d="M810 842H910" stroke="#F8FAFC" stroke-opacity="0.35" stroke-width="8" stroke-linecap="round"/>
  <path d="M1000 842H1100" stroke="#F8FAFC" stroke-opacity="0.35" stroke-width="8" stroke-linecap="round"/>
  <path d="M1190 842H1290" stroke="#F8FAFC" stroke-opacity="0.35" stroke-width="8" stroke-linecap="round"/>
  <path d="M1380 842H1480" stroke="#F8FAFC" stroke-opacity="0.35" stroke-width="8" stroke-linecap="round"/>
  <rect x="240" y="560" width="510" height="180" rx="28" fill="#0C1B2A" stroke="#38BDF8" stroke-width="4"/>
  <rect x="826" y="330" width="860" height="260" rx="34" fill="#0D2031" stroke="#F97316" stroke-width="4"/>
  <path d="M338 690C330 628 362 596 430 596H560C622 596 658 628 662 690" stroke="#38BDF8" stroke-width="14" stroke-linecap="round"/>
  <circle cx="418" cy="690" r="30" fill="#38BDF8"/>
  <circle cx="588" cy="690" r="30" fill="#38BDF8"/>
  <path d="M930 500H1588" stroke="#F97316" stroke-width="8" stroke-linecap="round"/>
  <path d="M930 560H1502" stroke="#F97316" stroke-opacity="0.45" stroke-width="8" stroke-linecap="round"/>
  <circle cx="1600" cy="220" r="98" fill="#F97316" fill-opacity="0.12"/>
  <defs>
    <radialGradient id="paint0_radial" cx="0" cy="0" r="1" gradientUnits="userSpaceOnUse" gradientTransform="translate(1340 210) rotate(122.626) scale(768.863 975.513)">
      <stop stop-color="#163553"/>
      <stop offset="1" stop-color="#08121E" stop-opacity="0"/>
    </radialGradient>
  </defs>
</svg>
