<svg width="1920" height="1080" viewBox="0 0 1920 1080" fill="none" xmlns="http://www.w3.org/2000/svg">
  <rect width="1920" height="1080" fill="#09101A"/>
  <rect width="1920" height="1080" fill="url(#paint0_linear)"/>
  <rect x="160" y="170" width="560" height="720" rx="28" fill="#102235" stroke="#24496F" stroke-width="4"/>
  <rect x="220" y="250" width="440" height="560" rx="18" fill="#0C1A2A"/>
  <g opacity="0.55">
    <rect x="270" y="320" width="90" height="120" rx="12" fill="#173654"/>
    <rect x="390" y="320" width="90" height="120" rx="12" fill="#173654"/>
    <rect x="510" y="320" width="90" height="120" rx="12" fill="#173654"/>
    <rect x="270" y="470" width="90" height="120" rx="12" fill="#173654"/>
    <rect x="390" y="470" width="90" height="120" rx="12" fill="#173654"/>
    <rect x="510" y="470" width="90" height="120" rx="12" fill="#173654"/>
  </g>
  <path d="M980 250H1690" stroke="#213D59" stroke-width="6" stroke-linecap="round"/>
  <path d="M980 360H1690" stroke="#213D59" stroke-width="6" stroke-linecap="round"/>
  <path d="M980 470H1580" stroke="#213D59" stroke-width="6" stroke-linecap="round"/>
  <path d="M980 580H1640" stroke="#213D59" stroke-width="6" stroke-linecap="round"/>
  <rect x="980" y="660" width="720" height="160" rx="28" fill="#0D2031" stroke="#F97316" stroke-width="4"/>
  <rect x="1036" y="712" width="180" height="56" rx="12" fill="#F97316" fill-opacity="0.24"/>
  <rect x="1248" y="712" width="180" height="56" rx="12" fill="#38BDF8" fill-opacity="0.24"/>
  <rect x="1460" y="712" width="180" height="56" rx="12" fill="#FACC15" fill-opacity="0.24"/>
  <circle cx="1612" cy="206" r="90" fill="#F97316" fill-opacity="0.13"/>
  <defs>
    <linearGradient id="paint0_linear" x1="960" y1="0" x2="960" y2="1080" gradientUnits="userSpaceOnUse">
      <stop stop-color="#0E1A28"/>
      <stop offset="1" stop-color="#07111F"/>
    </linearGradient>
  </defs>
</svg>
