<svg xmlns="http://www.w3.org/2000/svg" width="1920" height="1080" viewBox="0 0 1920 1080" fill="none">
  <defs>
    <linearGradient id="bg" x1="0" y1="0" x2="1920" y2="1080" gradientUnits="userSpaceOnUse">
      <stop stop-color="#0F172A"/>
      <stop offset="1" stop-color="#020617"/>
    </linearGradient>
  </defs>
  <rect width="1920" height="1080" fill="url(#bg)"/>
  <g opacity="0.08">
    <path d="M0 135H1920M0 270H1920M0 405H1920M0 540H1920M0 675H1920M0 810H1920M0 945H1920" stroke="#E2E8F0"/>
    <path d="M150 0V1080M300 0V1080M450 0V1080M600 0V1080M750 0V1080M900 0V1080M1050 0V1080M1200 0V1080M1350 0V1080M1500 0V1080M1650 0V1080M1800 0V1080" stroke="#E2E8F0"/>
  </g>
  <rect x="132" y="110" width="1656" height="132" rx="28" fill="#991B1B"/>
  <rect x="132" y="282" width="1656" height="666" rx="34" fill="#0F172A" stroke="#334155" stroke-width="2"/>
  <g opacity="0.95">
    <rect x="206" y="384" width="494" height="442" rx="30" fill="#111827" stroke="#334155" stroke-width="2"/>
    <rect x="744" y="384" width="494" height="442" rx="30" fill="#111827" stroke="#334155" stroke-width="2"/>
    <rect x="1282" y="384" width="430" height="442" rx="30" fill="#111827" stroke="#334155" stroke-width="2"/>
    <path d="M280 456H624" stroke="#E5E7EB" stroke-width="18" stroke-linecap="round"/>
    <path d="M280 514H560" stroke="#64748B" stroke-width="12" stroke-linecap="round"/>
    <path d="M280 562H518" stroke="#64748B" stroke-width="12" stroke-linecap="round"/>
    <path d="M290 650L614 806" stroke="#EF4444" stroke-width="24" stroke-linecap="round"/>
    <path d="M614 650L290 806" stroke="#EF4444" stroke-width="24" stroke-linecap="round"/>
    <path d="M818 456H1162" stroke="#E5E7EB" stroke-width="18" stroke-linecap="round"/>
    <path d="M818 514H1098" stroke="#64748B" stroke-width="12" stroke-linecap="round"/>
    <path d="M818 562H1056" stroke="#64748B" stroke-width="12" stroke-linecap="round"/>
    <circle cx="990" cy="708" r="92" fill="#052E16" stroke="#22C55E" stroke-width="6"/>
    <path d="M944 710L978 744L1040 676" stroke="#22C55E" stroke-width="18" stroke-linecap="round" stroke-linejoin="round"/>
    <path d="M1360 456H1626" stroke="#E5E7EB" stroke-width="18" stroke-linecap="round"/>
    <path d="M1360 514H1592" stroke="#64748B" stroke-width="12" stroke-linecap="round"/>
    <path d="M1360 562H1564" stroke="#64748B" stroke-width="12" stroke-linecap="round"/>
    <rect x="1360" y="644" width="182" height="52" rx="16" fill="#1E40AF"/>
    <rect x="1558" y="644" width="104" height="52" rx="16" fill="#1E293B"/>
    <rect x="1360" y="730" width="278" height="16" rx="8" fill="#475569"/>
  </g>
</svg>
