<svg xmlns="http://www.w3.org/2000/svg" width="1920" height="1080" viewBox="0 0 1920 1080" fill="none">
  <defs>
    <linearGradient id="bg" x1="200" y1="0" x2="1720" y2="1080" gradientUnits="userSpaceOnUse">
      <stop stop-color="#09111F"/>
      <stop offset="0.5" stop-color="#0F172A"/>
      <stop offset="1" stop-color="#111827"/>
    </linearGradient>
    <linearGradient id="sky" x1="0" y1="120" x2="0" y2="760" gradientUnits="userSpaceOnUse">
      <stop stop-color="#1D4ED8" stop-opacity="0.28"/>
      <stop offset="1" stop-color="#1D4ED8" stop-opacity="0"/>
    </linearGradient>
  </defs>
  <rect width="1920" height="1080" fill="url(#bg)"/>
  <rect y="0" width="1920" height="760" fill="url(#sky)"/>
  <g opacity="0.08">
    <path d="M0 100H1920M0 200H1920M0 300H1920M0 400H1920M0 500H1920M0 600H1920M0 700H1920M0 800H1920M0 900H1920" stroke="#F8FAFC"/>
    <path d="M120 0V1080M240 0V1080M360 0V1080M480 0V1080M600 0V1080M720 0V1080M840 0V1080M960 0V1080M1080 0V1080M1200 0V1080M1320 0V1080M1440 0V1080M1560 0V1080M1680 0V1080M1800 0V1080" stroke="#F8FAFC"/>
  </g>
  <path d="M0 760H1920V1080H0V760Z" fill="#020617"/>
  <g opacity="0.92">
    <rect x="132" y="410" width="110" height="350" fill="#0F172A"/>
    <rect x="256" y="350" width="78" height="410" fill="#0F172A"/>
    <rect x="352" y="286" width="120" height="474" fill="#111827"/>
    <rect x="494" y="458" width="94" height="302" fill="#0F172A"/>
    <rect x="602" y="324" width="164" height="436" fill="#111827"/>
    <rect x="792" y="210" width="182" height="550" fill="#0F172A"/>
    <rect x="998" y="364" width="146" height="396" fill="#111827"/>
    <rect x="1168" y="296" width="168" height="464" fill="#0F172A"/>
    <rect x="1366" y="386" width="108" height="374" fill="#111827"/>
    <rect x="1492" y="250" width="182" height="510" fill="#0F172A"/>
  </g>
  <g opacity="0.82">
    <circle cx="405" cy="234" r="14" fill="#EF4444"/>
    <circle cx="665" cy="190" r="14" fill="#38BDF8"/>
    <circle cx="930" cy="148" r="16" fill="#FACC15"/>
    <circle cx="1188" cy="196" r="14" fill="#38BDF8"/>
    <circle cx="1452" cy="228" r="14" fill="#EF4444"/>
    <path d="M405 234L665 190L930 148L1188 196L1452 228" stroke="#E2E8F0" stroke-width="4" stroke-dasharray="8 10"/>
    <path d="M665 190L738 322" stroke="#38BDF8" stroke-width="3" opacity="0.6"/>
    <path d="M930 148L884 210" stroke="#FACC15" stroke-width="3" opacity="0.6"/>
    <path d="M1188 196L1250 298" stroke="#38BDF8" stroke-width="3" opacity="0.6"/>
  </g>
  <rect x="122" y="118" width="276" height="64" rx="18" fill="#991B1B"/>
  <rect x="426" y="118" width="212" height="64" rx="18" fill="#1E40AF"/>
  <rect x="132" y="840" width="650" height="150" rx="28" fill="#0F172A" stroke="#334155" stroke-width="2"/>
  <rect x="184" y="886" width="240" height="18" rx="9" fill="#E5E7EB"/>
  <rect x="184" y="922" width="520" height="12" rx="6" fill="#64748B"/>
  <rect x="184" y="950" width="474" height="12" rx="6" fill="#64748B"/>
  <rect x="1136" y="824" width="628" height="174" rx="30" fill="#111827" stroke="#334155" stroke-width="2"/>
  <rect x="1186" y="870" width="182" height="56" rx="16" fill="#1E40AF"/>
  <rect x="1390" y="870" width="144" height="56" rx="16" fill="#0F172A"/>
  <rect x="1186" y="944" width="486" height="16" rx="8" fill="#475569"/>
</svg>
