<svg xmlns="http://www.w3.org/2000/svg" width="1920" height="1080" viewBox="0 0 1920 1080" fill="none">
  <defs>
    <linearGradient id="bg" x1="200" y1="40" x2="1720" y2="1040" gradientUnits="userSpaceOnUse">
      <stop stop-color="#0B1220"/>
      <stop offset="0.5" stop-color="#111827"/>
      <stop offset="1" stop-color="#030712"/>
    </linearGradient>
    <linearGradient id="glow" x1="220" y1="170" x2="730" y2="790" gradientUnits="userSpaceOnUse">
      <stop stop-color="#1D4ED8" stop-opacity="0.5"/>
      <stop offset="1" stop-color="#1D4ED8" stop-opacity="0"/>
    </linearGradient>
    <linearGradient id="warn" x1="1240" y1="150" x2="1770" y2="850" gradientUnits="userSpaceOnUse">
      <stop stop-color="#EF4444" stop-opacity="0.42"/>
      <stop offset="1" stop-color="#EF4444" stop-opacity="0"/>
    </linearGradient>
    <filter id="blur" x="-40" y="-40" width="2000" height="1160" filterUnits="userSpaceOnUse">
      <feGaussianBlur stdDeviation="30"/>
    </filter>
  </defs>
  <rect width="1920" height="1080" fill="url(#bg)"/>
  <g opacity="0.12">
    <path d="M0 130H1920M0 260H1920M0 390H1920M0 520H1920M0 650H1920M0 780H1920M0 910H1920" stroke="#E5E7EB"/>
    <path d="M210 0V1080M420 0V1080M630 0V1080M840 0V1080M1050 0V1080M1260 0V1080M1470 0V1080M1680 0V1080" stroke="#E5E7EB"/>
  </g>
  <circle cx="560" cy="410" r="290" fill="url(#glow)"/>
  <circle cx="1440" cy="360" r="260" fill="url(#warn)"/>
  <g opacity="0.8">
    <rect x="120" y="150" width="640" height="760" rx="28" fill="#111827" stroke="#334155" stroke-width="2"/>
    <rect x="160" y="200" width="560" height="96" rx="18" fill="#0F172A"/>
    <rect x="185" y="225" width="168" height="18" rx="9" fill="#EF4444"/>
    <rect x="185" y="255" width="238" height="14" rx="7" fill="#CBD5E1" opacity="0.8"/>
    <rect x="185" y="340" width="512" height="22" rx="11" fill="#E2E8F0" opacity="0.9"/>
    <rect x="185" y="385" width="472" height="16" rx="8" fill="#64748B"/>
    <rect x="185" y="417" width="446" height="16" rx="8" fill="#64748B"/>
    <rect x="185" y="449" width="398" height="16" rx="8" fill="#64748B"/>
    <rect x="185" y="514" width="360" height="16" rx="8" fill="#94A3B8"/>
    <rect x="185" y="546" width="420" height="16" rx="8" fill="#94A3B8"/>
    <rect x="185" y="610" width="512" height="130" rx="18" fill="#020617" stroke="#334155" stroke-width="2"/>
    <rect x="214" y="640" width="320" height="18" rx="9" fill="#E5E7EB" opacity="0.9"/>
    <rect x="214" y="678" width="430" height="14" rx="7" fill="#475569"/>
    <rect x="214" y="708" width="384" height="14" rx="7" fill="#475569"/>
    <rect x="160" y="792" width="210" height="58" rx="16" fill="#991B1B"/>
    <rect x="386" y="792" width="170" height="58" rx="16" fill="#1E293B"/>
    <rect x="572" y="792" width="148" height="58" rx="16" fill="#1E40AF"/>
  </g>
  <g opacity="0.85">
    <rect x="915" y="165" width="760" height="750" rx="32" fill="#0F172A" stroke="#334155" stroke-width="2"/>
    <path d="M1010 275C1085 235 1185 232 1275 250C1362 267 1447 315 1498 377C1544 434 1543 481 1492 512C1446 540 1374 562 1290 570C1200 579 1113 569 1032 540L1042 506C1117 531 1194 540 1272 533C1348 525 1417 506 1460 480C1505 454 1500 421 1458 380C1412 335 1337 298 1264 283C1187 268 1102 269 1035 302L1010 275Z" fill="#CBD5E1" opacity="0.12"/>
    <circle cx="1380" cy="446" r="122" fill="none" stroke="#F8FAFC" stroke-width="14" opacity="0.9"/>
    <circle cx="1380" cy="446" r="68" fill="#EF4444" opacity="0.16"/>
    <path d="M1466 531L1558 623" stroke="#F8FAFC" stroke-width="18" stroke-linecap="round"/>
    <path d="M1140 680H1540" stroke="#E2E8F0" stroke-width="8" stroke-linecap="round" stroke-dasharray="12 14" opacity="0.75"/>
    <rect x="1082" y="636" width="132" height="50" rx="14" fill="#1E40AF"/>
    <rect x="1434" y="636" width="156" height="50" rx="14" fill="#991B1B"/>
    <rect x="1076" y="742" width="514" height="26" rx="13" fill="#E5E7EB" opacity="0.9"/>
    <rect x="1076" y="786" width="420" height="16" rx="8" fill="#64748B"/>
    <rect x="1076" y="818" width="366" height="16" rx="8" fill="#64748B"/>
  </g>
  <g filter="url(#blur)" opacity="0.28">
    <path d="M1060 118C1178 92 1298 98 1400 152C1505 207 1588 308 1634 432" stroke="#EF4444" stroke-width="36" stroke-linecap="round"/>
    <path d="M158 880C352 930 584 912 742 792" stroke="#1D4ED8" stroke-width="32" stroke-linecap="round"/>
  </g>
</svg>
