<svg xmlns="http://www.w3.org/2000/svg" viewBox="0 0 1920 1080">
  <defs>
    <linearGradient id="bg" x1="0%" y1="0%" x2="100%" y2="100%">
      <stop offset="0%" stop-color="#08111a"/>
      <stop offset="100%" stop-color="#1f1320"/>
    </linearGradient>
    <linearGradient id="quiet" x1="0%" y1="0%" x2="0%" y2="100%">
      <stop offset="0%" stop-color="#08111a" stop-opacity="0.18"/>
      <stop offset="100%" stop-color="#020617" stop-opacity="0.92"/>
    </linearGradient>
  </defs>
  <rect width="1920" height="1080" fill="url(#bg)"/>
  <circle cx="260" cy="160" r="220" fill="#38bdf8" opacity="0.07"/>
  <circle cx="1620" cy="180" r="240" fill="#ef4444" opacity="0.09"/>
  <rect x="120" y="90" width="1680" height="390" rx="38" fill="#0b1220" stroke="#334155" stroke-width="4"/>
  <rect x="170" y="142" width="742" height="286" rx="30" fill="#0f172a" stroke="#38bdf8" stroke-width="3"/>
  <rect x="1008" y="142" width="742" height="286" rx="30" fill="#0f172a" stroke="#ef4444" stroke-width="3"/>
  <rect x="226" y="196" width="628" height="66" rx="18" fill="#132130"/>
  <rect x="1064" y="196" width="628" height="66" rx="18" fill="#22131d"/>
  <rect x="226" y="288" width="628" height="54" rx="16" fill="#132130"/>
  <rect x="1064" y="288" width="628" height="54" rx="16" fill="#22131d"/>
  <rect x="226" y="364" width="380" height="22" rx="11" fill="#f8fafc" opacity="0.92"/>
  <rect x="1064" y="364" width="400" height="22" rx="11" fill="#f8fafc" opacity="0.92"/>
  <circle cx="278" cy="229" r="18" fill="#38bdf8"/>
  <circle cx="1116" cy="229" r="18" fill="#ef4444"/>
  <circle cx="278" cy="315" r="16" fill="#22c55e"/>
  <circle cx="1116" cy="315" r="16" fill="#f59e0b"/>
  <path d="M938 188V414" stroke="#475569" stroke-width="6" stroke-dasharray="16 16"/>
  <rect x="0" y="470" width="1920" height="610" fill="url(#quiet)"/>
</svg>
