<svg xmlns="http://www.w3.org/2000/svg" viewBox="0 0 1920 1080">
  <defs>
    <linearGradient id="bg" x1="0%" y1="0%" x2="100%" y2="100%">
      <stop offset="0%" stop-color="#07111a"/>
      <stop offset="100%" stop-color="#1b1622"/>
    </linearGradient>
    <radialGradient id="redGlow" cx="50%" cy="50%" r="50%">
      <stop offset="0%" stop-color="#ef4444" stop-opacity="0.28"/>
      <stop offset="100%" stop-color="#ef4444" stop-opacity="0"/>
    </radialGradient>
    <radialGradient id="blueGlow" cx="50%" cy="50%" r="50%">
      <stop offset="0%" stop-color="#38bdf8" stop-opacity="0.2"/>
      <stop offset="100%" stop-color="#38bdf8" stop-opacity="0"/>
    </radialGradient>
  </defs>
  <rect width="1920" height="1080" fill="url(#bg)"/>
  <circle cx="270" cy="220" r="240" fill="url(#blueGlow)"/>
  <circle cx="1610" cy="220" r="250" fill="url(#redGlow)"/>

  <rect x="120" y="110" width="1680" height="420" rx="36" fill="#0b1220" stroke="#334155" stroke-width="4"/>
  <path d="M238 356H1684" stroke="#64748b" stroke-width="10" stroke-linecap="round" opacity="0.45"/>
  <circle cx="320" cy="356" r="28" fill="#38bdf8"/>
  <circle cx="640" cy="356" r="28" fill="#f59e0b"/>
  <circle cx="960" cy="356" r="28" fill="#ef4444"/>
  <circle cx="1280" cy="356" r="28" fill="#38bdf8"/>
  <circle cx="1600" cy="356" r="28" fill="#f59e0b"/>

  <rect x="210" y="176" width="220" height="110" rx="24" fill="#132130"/>
  <rect x="530" y="176" width="220" height="110" rx="24" fill="#132130"/>
  <rect x="850" y="176" width="220" height="110" rx="24" fill="#132130"/>
  <rect x="1170" y="176" width="220" height="110" rx="24" fill="#132130"/>
  <rect x="1490" y="176" width="220" height="110" rx="24" fill="#132130"/>

  <rect x="210" y="394" width="220" height="74" rx="20" fill="#111827"/>
  <rect x="530" y="394" width="220" height="74" rx="20" fill="#111827"/>
  <rect x="850" y="394" width="220" height="74" rx="20" fill="#111827"/>
  <rect x="1170" y="394" width="220" height="74" rx="20" fill="#111827"/>
  <rect x="1490" y="394" width="220" height="74" rx="20" fill="#111827"/>

  <rect x="170" y="610" width="760" height="300" rx="34" fill="#0b1220" stroke="#334155" stroke-width="3"/>
  <rect x="990" y="610" width="760" height="300" rx="34" fill="#0b1220" stroke="#334155" stroke-width="3"/>
  <rect x="226" y="676" width="648" height="58" rx="18" fill="#132130"/>
  <rect x="226" y="758" width="600" height="40" rx="16" fill="#132130"/>
  <rect x="226" y="818" width="548" height="32" rx="14" fill="#132130"/>
  <rect x="1046" y="676" width="648" height="58" rx="18" fill="#132130"/>
  <rect x="1046" y="758" width="600" height="40" rx="16" fill="#132130"/>
  <rect x="1046" y="818" width="548" height="32" rx="14" fill="#132130"/>
</svg>
