<svg xmlns="http://www.w3.org/2000/svg" viewBox="0 0 1920 1080">
  <defs>
    <linearGradient id="bg" x1="0%" y1="0%" x2="100%" y2="100%">
      <stop offset="0%" stop-color="#071018"/>
      <stop offset="100%" stop-color="#231316"/>
    </linearGradient>
    <linearGradient id="quiet" x1="0%" y1="0%" x2="0%" y2="100%">
      <stop offset="0%" stop-color="#071018" stop-opacity="0.2"/>
      <stop offset="100%" stop-color="#020617" stop-opacity="0.92"/>
    </linearGradient>
  </defs>
  <rect width="1920" height="1080" fill="url(#bg)"/>
  <circle cx="1460" cy="168" r="250" fill="#ef4444" opacity="0.1"/>
  <rect x="120" y="90" width="1680" height="390" rx="38" fill="#0b1220" stroke="#334155" stroke-width="4"/>
  <rect x="168" y="136" width="500" height="292" rx="30" fill="#0f172a" stroke="#475569" stroke-width="3"/>
  <rect x="710" y="136" width="500" height="292" rx="30" fill="#0f172a" stroke="#475569" stroke-width="3"/>
  <rect x="1252" y="136" width="500" height="292" rx="30" fill="#0f172a" stroke="#475569" stroke-width="3"/>
  <rect x="212" y="188" width="412" height="60" rx="18" fill="#132130"/>
  <rect x="754" y="188" width="412" height="60" rx="18" fill="#132130"/>
  <rect x="1296" y="188" width="412" height="60" rx="18" fill="#132130"/>
  <rect x="212" y="274" width="290" height="18" rx="9" fill="#94a3b8"/>
  <rect x="212" y="310" width="314" height="18" rx="9" fill="#94a3b8"/>
  <rect x="212" y="346" width="338" height="18" rx="9" fill="#94a3b8"/>
  <rect x="754" y="274" width="290" height="18" rx="9" fill="#94a3b8"/>
  <rect x="754" y="310" width="314" height="18" rx="9" fill="#94a3b8"/>
  <rect x="754" y="346" width="338" height="18" rx="9" fill="#94a3b8"/>
  <rect x="1296" y="274" width="290" height="18" rx="9" fill="#94a3b8"/>
  <rect x="1296" y="310" width="314" height="18" rx="9" fill="#94a3b8"/>
  <rect x="1296" y="346" width="338" height="18" rx="9" fill="#94a3b8"/>
  <circle cx="248" cy="218" r="18" fill="#38bdf8"/>
  <circle cx="790" cy="218" r="18" fill="#f59e0b"/>
  <circle cx="1332" cy="218" r="18" fill="#ef4444"/>
  <path d="M642 282H710" stroke="#e2e8f0" stroke-width="8" stroke-linecap="round"/>
  <path d="M1184 282H1252" stroke="#e2e8f0" stroke-width="8" stroke-linecap="round"/>
  <path d="M678 266L710 282L678 298" fill="none" stroke="#e2e8f0" stroke-width="8" stroke-linecap="round" stroke-linejoin="round"/>
  <path d="M1220 266L1252 282L1220 298" fill="none" stroke="#e2e8f0" stroke-width="8" stroke-linecap="round" stroke-linejoin="round"/>
  <rect x="0" y="470" width="1920" height="610" fill="url(#quiet)"/>
</svg>
