<svg xmlns="http://www.w3.org/2000/svg" viewBox="0 0 1920 1080">
  <defs>
    <linearGradient id="bg" x1="0%" y1="0%" x2="100%" y2="100%">
      <stop offset="0%" stop-color="#071018"/>
      <stop offset="100%" stop-color="#111827"/>
    </linearGradient>
    <linearGradient id="water" x1="0%" y1="0%" x2="100%" y2="0%">
      <stop offset="0%" stop-color="#0f172a"/>
      <stop offset="50%" stop-color="#132130"/>
      <stop offset="100%" stop-color="#0f172a"/>
    </linearGradient>
    <linearGradient id="quiet" x1="0%" y1="0%" x2="0%" y2="100%">
      <stop offset="0%" stop-color="#08111a" stop-opacity="0.18"/>
      <stop offset="100%" stop-color="#020617" stop-opacity="0.92"/>
    </linearGradient>
  </defs>
  <rect width="1920" height="1080" fill="url(#bg)"/>
  <circle cx="1560" cy="172" r="260" fill="#38bdf8" opacity="0.1"/>
  <rect x="120" y="90" width="1680" height="390" rx="38" fill="#0b1220" stroke="#334155" stroke-width="4"/>
  <rect x="162" y="146" width="1596" height="118" rx="28" fill="#0f172a" stroke="#475569" stroke-width="3"/>
  <rect x="162" y="302" width="1596" height="126" rx="28" fill="url(#water)" stroke="#475569" stroke-width="3"/>
  <path d="M240 364H1660" stroke="#38bdf8" stroke-width="12" stroke-linecap="round" opacity="0.8"/>
  <path d="M240 392H1660" stroke="#64748b" stroke-width="6" stroke-linecap="round" opacity="0.55" stroke-dasharray="18 18"/>
  <rect x="258" y="168" width="300" height="72" rx="20" fill="#132130"/>
  <rect x="810" y="168" width="300" height="72" rx="20" fill="#132130"/>
  <rect x="1362" y="168" width="300" height="72" rx="20" fill="#132130"/>
  <circle cx="316" cy="204" r="18" fill="#ef4444"/>
  <circle cx="868" cy="204" r="18" fill="#f59e0b"/>
  <circle cx="1420" cy="204" r="18" fill="#22c55e"/>
  <rect x="420" y="344" width="170" height="40" rx="14" fill="#ef4444" opacity="0.9"/>
  <rect x="904" y="344" width="190" height="40" rx="14" fill="#f59e0b" opacity="0.9"/>
  <rect x="1412" y="344" width="170" height="40" rx="14" fill="#22c55e" opacity="0.9"/>
  <path d="M620 364H864" stroke="#e2e8f0" stroke-width="8" stroke-linecap="round"/>
  <path d="M1118 364H1368" stroke="#e2e8f0" stroke-width="8" stroke-linecap="round"/>
  <path d="M848 348L872 364L848 380" fill="none" stroke="#e2e8f0" stroke-width="8" stroke-linecap="round" stroke-linejoin="round"/>
  <path d="M1352 348L1376 364L1352 380" fill="none" stroke="#e2e8f0" stroke-width="8" stroke-linecap="round" stroke-linejoin="round"/>
  <rect x="0" y="470" width="1920" height="610" fill="url(#quiet)"/>
</svg>
