<svg xmlns="http://www.w3.org/2000/svg" viewBox="0 0 1920 1080">
  <defs>
    <linearGradient id="bg" x1="0%" y1="0%" x2="100%" y2="100%">
      <stop offset="0%" stop-color="#07111a"/>
      <stop offset="100%" stop-color="#18111b"/>
    </linearGradient>
    <linearGradient id="band" x1="0%" y1="0%" x2="0%" y2="100%">
      <stop offset="0%" stop-color="#0b1220"/>
      <stop offset="100%" stop-color="#111827"/>
    </linearGradient>
    <linearGradient id="quiet" x1="0%" y1="0%" x2="0%" y2="100%">
      <stop offset="0%" stop-color="#08101b" stop-opacity="0.2"/>
      <stop offset="100%" stop-color="#020617" stop-opacity="0.92"/>
    </linearGradient>
  </defs>
  <rect width="1920" height="1080" fill="url(#bg)"/>
  <circle cx="240" cy="140" r="220" fill="#38bdf8" opacity="0.08"/>
  <circle cx="1660" cy="180" r="260" fill="#ef4444" opacity="0.1"/>
  <rect x="120" y="90" width="1680" height="390" rx="38" fill="url(#band)" stroke="#334155" stroke-width="4"/>
  <rect x="164" y="136" width="280" height="110" rx="26" fill="#132130" stroke="#38bdf8" stroke-width="3"/>
  <rect x="514" y="136" width="280" height="110" rx="26" fill="#132130" stroke="#f59e0b" stroke-width="3"/>
  <rect x="864" y="136" width="280" height="110" rx="26" fill="#132130" stroke="#ef4444" stroke-width="3"/>
  <rect x="1214" y="136" width="542" height="110" rx="26" fill="#132130" stroke="#22c55e" stroke-width="3"/>
  <circle cx="226" cy="191" r="22" fill="#38bdf8"/>
  <circle cx="576" cy="191" r="22" fill="#f59e0b"/>
  <circle cx="926" cy="191" r="22" fill="#ef4444"/>
  <circle cx="1276" cy="191" r="22" fill="#22c55e"/>
  <path d="M454 191H504" stroke="#e2e8f0" stroke-width="8" stroke-linecap="round"/>
  <path d="M804 191H854" stroke="#e2e8f0" stroke-width="8" stroke-linecap="round"/>
  <path d="M1154 191H1204" stroke="#e2e8f0" stroke-width="8" stroke-linecap="round"/>
  <path d="M488 176L512 191L488 206" fill="none" stroke="#e2e8f0" stroke-width="8" stroke-linecap="round" stroke-linejoin="round"/>
  <path d="M838 176L862 191L838 206" fill="none" stroke="#e2e8f0" stroke-width="8" stroke-linecap="round" stroke-linejoin="round"/>
  <path d="M1188 176L1212 191L1188 206" fill="none" stroke="#e2e8f0" stroke-width="8" stroke-linecap="round" stroke-linejoin="round"/>

  <rect x="170" y="300" width="720" height="120" rx="26" fill="#0f172a" stroke="#334155" stroke-width="3"/>
  <rect x="940" y="300" width="790" height="120" rx="26" fill="#0f172a" stroke="#334155" stroke-width="3"/>
  <rect x="224" y="338" width="240" height="22" rx="11" fill="#f8fafc" opacity="0.95"/>
  <rect x="224" y="376" width="310" height="16" rx="8" fill="#94a3b8" opacity="0.72"/>
  <rect x="994" y="338" width="280" height="22" rx="11" fill="#f8fafc" opacity="0.95"/>
  <rect x="994" y="376" width="476" height="16" rx="8" fill="#94a3b8" opacity="0.72"/>
  <rect x="1510" y="338" width="170" height="22" rx="11" fill="#f97316" opacity="0.88"/>
  <rect x="1510" y="376" width="118" height="16" rx="8" fill="#94a3b8" opacity="0.7"/>

  <rect x="0" y="460" width="1920" height="620" fill="url(#quiet)"/>
</svg>
