<svg width="1600" height="900" viewBox="0 0 1600 900" fill="none" xmlns="http://www.w3.org/2000/svg">
  <defs>
    <linearGradient id="loopBg" x1="220" y1="80" x2="1380" y2="820" gradientUnits="userSpaceOnUse">
      <stop offset="0" stop-color="#0b1324"/>
      <stop offset="0.52" stop-color="#111827"/>
      <stop offset="1" stop-color="#030712"/>
    </linearGradient>
    <filter id="loopGlow">
      <feGaussianBlur stdDeviation="34"/>
    </filter>
  </defs>
  <rect width="1600" height="900" fill="url(#loopBg)"/>
  <ellipse cx="1160" cy="228" rx="260" ry="150" fill="#ef4444" opacity="0.16" filter="url(#loopGlow)"/>
  <ellipse cx="410" cy="236" rx="210" ry="130" fill="#38bdf8" opacity="0.08" filter="url(#loopGlow)"/>

  <rect x="170" y="118" width="1260" height="664" rx="34" fill="#08111d" stroke="#334155" stroke-width="2"/>

  <g opacity="0.96">
    <rect x="634" y="134" width="332" height="144" rx="26" fill="#111827" stroke="#ef4444" stroke-width="4"/>
    <rect x="698" y="182" width="206" height="18" rx="9" fill="#f8fafc" opacity="0.84"/>
    <rect x="698" y="216" width="182" height="14" rx="7" fill="#94a3b8" opacity="0.5"/>
  </g>

  <g opacity="0.94">
    <rect x="1088" y="360" width="258" height="162" rx="26" fill="#0f172a" stroke="#f59e0b" stroke-width="3"/>
    <rect x="1138" y="408" width="160" height="18" rx="9" fill="#f8fafc" opacity="0.82"/>
    <rect x="1138" y="442" width="142" height="14" rx="7" fill="#94a3b8" opacity="0.48"/>
    <rect x="1138" y="474" width="124" height="14" rx="7" fill="#94a3b8" opacity="0.34"/>
  </g>

  <g opacity="0.94">
    <rect x="630" y="610" width="340" height="150" rx="26" fill="#0f172a" stroke="#38bdf8" stroke-width="3"/>
    <rect x="696" y="656" width="208" height="18" rx="9" fill="#f8fafc" opacity="0.82"/>
    <rect x="696" y="690" width="230" height="14" rx="7" fill="#94a3b8" opacity="0.48"/>
    <rect x="696" y="722" width="166" height="14" rx="7" fill="#94a3b8" opacity="0.34"/>
  </g>

  <g opacity="0.94">
    <rect x="252" y="360" width="272" height="162" rx="26" fill="#0f172a" stroke="#38bdf8" stroke-width="3"/>
    <rect x="304" y="408" width="170" height="18" rx="9" fill="#f8fafc" opacity="0.82"/>
    <rect x="304" y="442" width="186" height="14" rx="7" fill="#94a3b8" opacity="0.48"/>
    <rect x="304" y="474" width="138" height="14" rx="7" fill="#94a3b8" opacity="0.34"/>
  </g>

  <path d="M1004 220C1122 258 1192 314 1236 368" stroke="#ef4444" stroke-width="14" stroke-linecap="round"/>
  <path d="M1220 336L1248 378L1198 384" stroke="#ef4444" stroke-width="14" stroke-linecap="round" stroke-linejoin="round"/>

  <path d="M1218 540C1170 610 1096 656 970 684" stroke="#f59e0b" stroke-width="14" stroke-linecap="round"/>
  <path d="M1002 654L956 688L1010 704" stroke="#f59e0b" stroke-width="14" stroke-linecap="round" stroke-linejoin="round"/>

  <path d="M634 682C514 646 434 596 382 532" stroke="#38bdf8" stroke-width="14" stroke-linecap="round"/>
  <path d="M432 562L368 520L384 578" stroke="#38bdf8" stroke-width="14" stroke-linecap="round" stroke-linejoin="round"/>

  <path d="M392 348C448 278 520 228 632 204" stroke="#38bdf8" stroke-width="14" stroke-linecap="round"/>
  <path d="M602 174L648 202L596 226" stroke="#38bdf8" stroke-width="14" stroke-linecap="round" stroke-linejoin="round"/>

  <circle cx="800" cy="444" r="124" fill="#dc2626" opacity="0.12"/>
  <circle cx="800" cy="444" r="78" fill="#111827" stroke="#ef4444" stroke-width="6"/>
  <path d="M748 444H852" stroke="#f8fafc" stroke-width="12" stroke-linecap="round"/>
  <path d="M828 414L858 444L828 474" stroke="#f8fafc" stroke-width="12" stroke-linecap="round" stroke-linejoin="round"/>
</svg>
