<svg width="1600" height="900" viewBox="0 0 1600 900" fill="none" xmlns="http://www.w3.org/2000/svg">
  <defs>
    <linearGradient id="timelineBg" x1="180" y1="60" x2="1420" y2="840" gradientUnits="userSpaceOnUse">
      <stop offset="0" stop-color="#0f172a"/>
      <stop offset="0.5" stop-color="#111827"/>
      <stop offset="1" stop-color="#020617"/>
    </linearGradient>
    <filter id="timelineGlow">
      <feGaussianBlur stdDeviation="34"/>
    </filter>
  </defs>
  <rect width="1600" height="900" fill="url(#timelineBg)"/>
  <ellipse cx="1190" cy="220" rx="250" ry="150" fill="#ef4444" opacity="0.18" filter="url(#timelineGlow)"/>
  <ellipse cx="380" cy="180" rx="180" ry="120" fill="#38bdf8" opacity="0.1" filter="url(#timelineGlow)"/>

  <rect x="140" y="132" width="1320" height="636" rx="34" fill="#08111d" stroke="#334155" stroke-width="2"/>
  <rect x="210" y="206" width="1180" height="58" rx="18" fill="#111827" stroke="#475569" stroke-width="2"/>
  <rect x="256" y="226" width="248" height="18" rx="9" fill="#f8fafc" opacity="0.82"/>
  <rect x="1084" y="226" width="222" height="18" rx="9" fill="#ef4444" opacity="0.66"/>

  <path d="M280 552H1320" stroke="#64748b" stroke-width="10" stroke-linecap="round"/>

  <g opacity="0.96">
    <circle cx="460" cy="552" r="28" fill="#38bdf8"/>
    <rect x="336" y="338" width="248" height="166" rx="28" fill="#0f172a" stroke="#38bdf8" stroke-width="3"/>
    <rect x="394" y="382" width="130" height="18" rx="9" fill="#f8fafc" opacity="0.82"/>
    <rect x="394" y="416" width="152" height="14" rx="7" fill="#94a3b8" opacity="0.5"/>
    <rect x="394" y="448" width="120" height="14" rx="7" fill="#94a3b8" opacity="0.34"/>
    <path d="M460 504V524" stroke="#38bdf8" stroke-width="8" stroke-linecap="round"/>
  </g>

  <g opacity="0.98">
    <circle cx="800" cy="552" r="30" fill="#f59e0b"/>
    <rect x="666" y="290" width="268" height="214" rx="28" fill="#111827" stroke="#f59e0b" stroke-width="3"/>
    <rect x="726" y="340" width="148" height="18" rx="9" fill="#f8fafc" opacity="0.84"/>
    <rect x="726" y="376" width="170" height="14" rx="7" fill="#94a3b8" opacity="0.5"/>
    <rect x="726" y="408" width="138" height="14" rx="7" fill="#94a3b8" opacity="0.34"/>
    <rect x="720" y="442" width="160" height="20" rx="10" fill="#f59e0b" opacity="0.4"/>
    <path d="M800 504V522" stroke="#f59e0b" stroke-width="8" stroke-linecap="round"/>
  </g>

  <g opacity="0.98">
    <circle cx="1140" cy="552" r="32" fill="#ef4444"/>
    <rect x="996" y="246" width="288" height="258" rx="30" fill="#111827" stroke="#ef4444" stroke-width="4"/>
    <rect x="1060" y="304" width="162" height="18" rx="9" fill="#f8fafc" opacity="0.84"/>
    <rect x="1060" y="342" width="184" height="14" rx="7" fill="#94a3b8" opacity="0.5"/>
    <rect x="1060" y="374" width="152" height="14" rx="7" fill="#94a3b8" opacity="0.34"/>
    <path d="M1078 448H1204" stroke="#ef4444" stroke-width="12" stroke-linecap="round"/>
    <path d="M1184 416L1218 448L1184 480" stroke="#ef4444" stroke-width="12" stroke-linecap="round" stroke-linejoin="round"/>
    <path d="M1140 504V520" stroke="#ef4444" stroke-width="8" stroke-linecap="round"/>
  </g>

  <path d="M460 552H800" stroke="#38bdf8" stroke-width="8" stroke-dasharray="14 12"/>
  <path d="M800 552H1140" stroke="#f59e0b" stroke-width="8" stroke-dasharray="14 12"/>

  <rect x="220" y="646" width="1160" height="80" rx="26" fill="#0f172a" stroke="#334155" stroke-width="2"/>
  <rect x="270" y="678" width="300" height="16" rx="8" fill="#94a3b8" opacity="0.52"/>
  <rect x="650" y="678" width="320" height="16" rx="8" fill="#94a3b8" opacity="0.4"/>
  <rect x="1048" y="678" width="220" height="16" rx="8" fill="#ef4444" opacity="0.42"/>
</svg>
