<svg width="1600" height="900" viewBox="0 0 1600 900" fill="none" xmlns="http://www.w3.org/2000/svg">
  <defs>
    <linearGradient id="amakBg" x1="220" y1="70" x2="1380" y2="860" gradientUnits="userSpaceOnUse">
      <stop offset="0" stop-color="#0f172a"/>
      <stop offset="0.55" stop-color="#111827"/>
      <stop offset="1" stop-color="#020617"/>
    </linearGradient>
    <filter id="amakGlow">
      <feGaussianBlur stdDeviation="34"/>
    </filter>
  </defs>
  <rect width="1600" height="900" fill="url(#amakBg)"/>
  <ellipse cx="430" cy="166" rx="190" ry="120" fill="#38bdf8" opacity="0.12" filter="url(#amakGlow)"/>
  <ellipse cx="1174" cy="250" rx="240" ry="130" fill="#ef4444" opacity="0.24" filter="url(#amakGlow)"/>

  <rect x="188" y="116" width="448" height="658" rx="26" fill="#09111f" stroke="#334155" stroke-width="2"/>
  <rect x="244" y="176" width="336" height="40" rx="10" fill="#1e293b"/>
  <rect x="268" y="188" width="176" height="14" rx="7" fill="#e2e8f0" opacity="0.8"/>
  <rect x="268" y="254" width="288" height="402" rx="18" fill="#0f172a" stroke="#475569" stroke-width="2"/>
  <rect x="304" y="294" width="56" height="56" fill="#1e293b"/>
  <rect x="388" y="294" width="56" height="56" fill="#1e293b"/>
  <rect x="472" y="294" width="56" height="56" fill="#1e293b"/>
  <rect x="304" y="390" width="56" height="56" fill="#1e293b"/>
  <rect x="388" y="390" width="56" height="56" fill="#1e293b"/>
  <rect x="472" y="390" width="56" height="56" fill="#1e293b"/>
  <rect x="304" y="486" width="56" height="56" fill="#1e293b"/>
  <rect x="388" y="486" width="56" height="56" fill="#1e293b"/>
  <rect x="472" y="486" width="56" height="56" fill="#1e293b"/>
  <rect x="286" y="688" width="272" height="36" rx="10" fill="#dc2626" opacity="0.88"/>

  <path d="M748 220L748 310" stroke="#94a3b8" stroke-width="6" stroke-linecap="round"/>
  <path d="M748 310L720 280" stroke="#94a3b8" stroke-width="6" stroke-linecap="round"/>
  <path d="M748 310L776 280" stroke="#94a3b8" stroke-width="6" stroke-linecap="round"/>

  <path d="M930 220L930 310" stroke="#ef4444" stroke-width="8" stroke-linecap="round"/>
  <path d="M930 310L900 278" stroke="#ef4444" stroke-width="8" stroke-linecap="round"/>
  <path d="M930 310L960 278" stroke="#ef4444" stroke-width="8" stroke-linecap="round"/>

  <path d="M1116 220L1116 310" stroke="#94a3b8" stroke-width="6" stroke-linecap="round"/>
  <path d="M1116 310L1088 280" stroke="#94a3b8" stroke-width="6" stroke-linecap="round"/>
  <path d="M1116 310L1144 280" stroke="#94a3b8" stroke-width="6" stroke-linecap="round"/>

  <g opacity="0.94">
    <rect x="674" y="340" width="148" height="132" rx="22" fill="#111827" stroke="#475569" stroke-width="2"/>
    <rect x="716" y="384" width="64" height="14" rx="7" fill="#f8fafc" opacity="0.82"/>
    <rect x="706" y="414" width="84" height="12" rx="6" fill="#94a3b8" opacity="0.42"/>
    <circle cx="748" cy="438" r="22" fill="#38bdf8" opacity="0.74"/>
  </g>
  <g opacity="0.98">
    <rect x="856" y="322" width="148" height="150" rx="22" fill="#111827" stroke="#ef4444" stroke-width="3"/>
    <rect x="898" y="366" width="64" height="14" rx="7" fill="#f8fafc" opacity="0.82"/>
    <rect x="888" y="396" width="84" height="12" rx="6" fill="#94a3b8" opacity="0.42"/>
    <circle cx="930" cy="430" r="34" fill="#dc2626"/>
    <path d="M916 434H944" stroke="#f8fafc" stroke-width="8" stroke-linecap="round"/>
    <path d="M930 420V448" stroke="#f8fafc" stroke-width="8" stroke-linecap="round"/>
  </g>
  <g opacity="0.94">
    <rect x="1042" y="340" width="148" height="132" rx="22" fill="#111827" stroke="#475569" stroke-width="2"/>
    <rect x="1084" y="384" width="64" height="14" rx="7" fill="#f8fafc" opacity="0.82"/>
    <rect x="1074" y="414" width="84" height="12" rx="6" fill="#94a3b8" opacity="0.42"/>
    <circle cx="1116" cy="438" r="22" fill="#38bdf8" opacity="0.74"/>
  </g>

  <rect x="736" y="546" width="402" height="124" rx="24" fill="#0f172a" stroke="#475569" stroke-width="2"/>
  <rect x="778" y="588" width="178" height="16" rx="8" fill="#f8fafc" opacity="0.82"/>
  <rect x="778" y="620" width="300" height="14" rx="7" fill="#94a3b8" opacity="0.46"/>
</svg>
