<svg width="1600" height="900" viewBox="0 0 1600 900" fill="none" xmlns="http://www.w3.org/2000/svg">
  <defs>
    <linearGradient id="compareBg" x1="180" y1="60" x2="1420" y2="840" gradientUnits="userSpaceOnUse">
      <stop offset="0" stop-color="#0f172a"/>
      <stop offset="0.5" stop-color="#111827"/>
      <stop offset="1" stop-color="#020617"/>
    </linearGradient>
    <filter id="compareGlow">
      <feGaussianBlur stdDeviation="32"/>
    </filter>
  </defs>
  <rect width="1600" height="900" fill="url(#compareBg)"/>
  <ellipse cx="1200" cy="220" rx="250" ry="150" fill="#ef4444" opacity="0.18" filter="url(#compareGlow)"/>
  <ellipse cx="350" cy="220" rx="180" ry="120" fill="#38bdf8" opacity="0.1" filter="url(#compareGlow)"/>

  <rect x="156" y="126" width="1288" height="648" rx="34" fill="#07101d" stroke="#334155" stroke-width="2"/>

  <rect x="212" y="206" width="346" height="460" rx="28" fill="#0f172a" stroke="#ef4444" stroke-width="4"/>
  <rect x="626" y="206" width="346" height="460" rx="28" fill="#0f172a" stroke="#38bdf8" stroke-width="4"/>
  <rect x="1040" y="206" width="346" height="460" rx="28" fill="#0f172a" stroke="#f59e0b" stroke-width="4"/>

  <rect x="272" y="278" width="222" height="18" rx="9" fill="#f8fafc" opacity="0.84"/>
  <rect x="272" y="316" width="186" height="14" rx="7" fill="#94a3b8" opacity="0.5"/>
  <rect x="272" y="348" width="214" height="14" rx="7" fill="#94a3b8" opacity="0.34"/>
  <rect x="272" y="404" width="210" height="22" rx="11" fill="#dc2626" opacity="0.52"/>
  <rect x="272" y="454" width="244" height="22" rx="11" fill="#7f1d1d" opacity="0.38"/>
  <rect x="272" y="504" width="202" height="22" rx="11" fill="#7f1d1d" opacity="0.3"/>

  <rect x="686" y="278" width="222" height="18" rx="9" fill="#f8fafc" opacity="0.84"/>
  <rect x="686" y="316" width="186" height="14" rx="7" fill="#94a3b8" opacity="0.5"/>
  <rect x="686" y="348" width="214" height="14" rx="7" fill="#94a3b8" opacity="0.34"/>
  <rect x="686" y="404" width="210" height="22" rx="11" fill="#38bdf8" opacity="0.52"/>
  <rect x="686" y="454" width="244" height="22" rx="11" fill="#1d4ed8" opacity="0.38"/>
  <rect x="686" y="504" width="202" height="22" rx="11" fill="#1d4ed8" opacity="0.3"/>

  <rect x="1100" y="278" width="222" height="18" rx="9" fill="#f8fafc" opacity="0.84"/>
  <rect x="1100" y="316" width="186" height="14" rx="7" fill="#94a3b8" opacity="0.5"/>
  <rect x="1100" y="348" width="214" height="14" rx="7" fill="#94a3b8" opacity="0.34"/>
  <rect x="1100" y="404" width="210" height="22" rx="11" fill="#f59e0b" opacity="0.52"/>
  <rect x="1100" y="454" width="244" height="22" rx="11" fill="#ca8a04" opacity="0.38"/>
  <rect x="1100" y="504" width="202" height="22" rx="11" fill="#ca8a04" opacity="0.3"/>

  <path d="M558 436H626" stroke="#64748b" stroke-width="8" stroke-dasharray="12 12"/>
  <path d="M972 436H1040" stroke="#64748b" stroke-width="8" stroke-dasharray="12 12"/>

  <rect x="382" y="718" width="836" height="24" rx="12" fill="#111827" stroke="#334155" stroke-width="2"/>
  <rect x="430" y="722" width="208" height="16" rx="8" fill="#ef4444" opacity="0.42"/>
  <rect x="694" y="722" width="208" height="16" rx="8" fill="#38bdf8" opacity="0.42"/>
  <rect x="958" y="722" width="208" height="16" rx="8" fill="#f59e0b" opacity="0.42"/>
</svg>
