<svg width="1600" height="900" viewBox="0 0 1600 900" fill="none" xmlns="http://www.w3.org/2000/svg">
  <defs>
    <linearGradient id="specialBg" x1="140" y1="80" x2="1460" y2="840" gradientUnits="userSpaceOnUse">
      <stop offset="0" stop-color="#0f172a"/>
      <stop offset="0.52" stop-color="#111827"/>
      <stop offset="1" stop-color="#020617"/>
    </linearGradient>
    <filter id="specialGlow">
      <feGaussianBlur stdDeviation="34"/>
    </filter>
  </defs>
  <rect width="1600" height="900" fill="url(#specialBg)"/>
  <ellipse cx="1150" cy="210" rx="250" ry="130" fill="#ef4444" opacity="0.18" filter="url(#specialGlow)"/>
  <ellipse cx="356" cy="714" rx="220" ry="120" fill="#38bdf8" opacity="0.1" filter="url(#specialGlow)"/>

  <g opacity="0.96">
    <rect x="262" y="164" width="456" height="520" rx="28" fill="#111827" stroke="#475569" stroke-width="2"/>
    <rect x="316" y="220" width="264" height="18" rx="9" fill="#f8fafc" opacity="0.82"/>
    <rect x="316" y="256" width="198" height="14" rx="7" fill="#94a3b8" opacity="0.52"/>
    <rect x="316" y="318" width="348" height="78" rx="18" fill="#0f172a" stroke="#334155" stroke-width="2"/>
    <rect x="316" y="420" width="348" height="78" rx="18" fill="#0f172a" stroke="#334155" stroke-width="2"/>
    <rect x="316" y="522" width="348" height="78" rx="18" fill="#0f172a" stroke="#334155" stroke-width="2"/>
    <rect x="344" y="342" width="176" height="12" rx="6" fill="#e2e8f0" opacity="0.78"/>
    <rect x="344" y="376" width="228" height="10" rx="5" fill="#94a3b8" opacity="0.34"/>
    <rect x="344" y="444" width="160" height="12" rx="6" fill="#e2e8f0" opacity="0.78"/>
    <rect x="344" y="478" width="210" height="10" rx="5" fill="#94a3b8" opacity="0.34"/>
    <rect x="344" y="546" width="170" height="12" rx="6" fill="#e2e8f0" opacity="0.78"/>
    <rect x="344" y="580" width="236" height="10" rx="5" fill="#94a3b8" opacity="0.34"/>
  </g>

  <g opacity="0.88">
    <rect x="630" y="220" width="432" height="520" rx="28" fill="#0f172a" stroke="#475569" stroke-width="2"/>
    <rect x="684" y="276" width="244" height="18" rx="9" fill="#f8fafc" opacity="0.82"/>
    <rect x="684" y="312" width="206" height="14" rx="7" fill="#94a3b8" opacity="0.52"/>
    <rect x="684" y="372" width="324" height="68" rx="18" fill="#111827" stroke="#334155" stroke-width="2"/>
    <rect x="684" y="462" width="324" height="68" rx="18" fill="#111827" stroke="#334155" stroke-width="2"/>
    <rect x="684" y="552" width="324" height="68" rx="18" fill="#111827" stroke="#334155" stroke-width="2"/>
    <rect x="714" y="396" width="162" height="12" rx="6" fill="#e2e8f0" opacity="0.76"/>
    <rect x="714" y="430" width="200" height="10" rx="5" fill="#94a3b8" opacity="0.32"/>
    <rect x="714" y="486" width="148" height="12" rx="6" fill="#e2e8f0" opacity="0.76"/>
    <rect x="714" y="520" width="208" height="10" rx="5" fill="#94a3b8" opacity="0.32"/>
    <rect x="714" y="576" width="170" height="12" rx="6" fill="#e2e8f0" opacity="0.76"/>
    <rect x="714" y="610" width="196" height="10" rx="5" fill="#94a3b8" opacity="0.32"/>
  </g>

  <g opacity="0.98">
    <rect x="998" y="168" width="360" height="524" rx="28" fill="#111827" stroke="#ef4444" stroke-width="3"/>
    <rect x="1050" y="224" width="200" height="18" rx="9" fill="#f8fafc" opacity="0.82"/>
    <rect x="1050" y="260" width="172" height="14" rx="7" fill="#94a3b8" opacity="0.52"/>
    <rect x="1050" y="322" width="256" height="80" rx="20" fill="#0f172a" stroke="#334155" stroke-width="2"/>
    <rect x="1050" y="430" width="256" height="80" rx="20" fill="#0f172a" stroke="#334155" stroke-width="2"/>
    <rect x="1050" y="538" width="256" height="80" rx="20" fill="#0f172a" stroke="#334155" stroke-width="2"/>
    <rect x="1080" y="348" width="120" height="12" rx="6" fill="#e2e8f0" opacity="0.78"/>
    <rect x="1080" y="382" width="170" height="10" rx="5" fill="#94a3b8" opacity="0.34"/>
    <rect x="1080" y="456" width="132" height="12" rx="6" fill="#e2e8f0" opacity="0.78"/>
    <rect x="1080" y="490" width="178" height="10" rx="5" fill="#94a3b8" opacity="0.34"/>
    <rect x="1080" y="564" width="118" height="12" rx="6" fill="#e2e8f0" opacity="0.78"/>
    <rect x="1080" y="598" width="182" height="10" rx="5" fill="#94a3b8" opacity="0.34"/>
  </g>

  <path d="M718 424L630 424" stroke="#64748b" stroke-width="4" stroke-dasharray="10 10"/>
  <path d="M1004 516L914 516" stroke="#ef4444" stroke-width="5" stroke-dasharray="10 10"/>
  <path d="M990 630L904 630" stroke="#64748b" stroke-width="4" stroke-dasharray="10 10"/>
</svg>
