<svg width="1600" height="900" viewBox="0 0 1600 900" fill="none" xmlns="http://www.w3.org/2000/svg">
  <defs>
    <linearGradient id="bg" x1="180" y1="60" x2="1420" y2="840" gradientUnits="userSpaceOnUse">
      <stop offset="0" stop-color="#0f172a"/>
      <stop offset="0.55" stop-color="#111827"/>
      <stop offset="1" stop-color="#020617"/>
    </linearGradient>
    <linearGradient id="redGlow" x1="0" y1="0" x2="1" y2="1">
      <stop offset="0" stop-color="#ef4444" stop-opacity="0.95"/>
      <stop offset="1" stop-color="#7f1d1d" stop-opacity="0.2"/>
    </linearGradient>
    <filter id="soft">
      <feGaussianBlur stdDeviation="38"/>
    </filter>
  </defs>

  <rect width="1600" height="900" fill="url(#bg)"/>
  <g opacity="0.18">
    <path d="M0 96H1600" stroke="#94a3b8" stroke-width="1"/>
    <path d="M0 192H1600" stroke="#94a3b8" stroke-width="1"/>
    <path d="M0 288H1600" stroke="#94a3b8" stroke-width="1"/>
    <path d="M0 384H1600" stroke="#94a3b8" stroke-width="1"/>
    <path d="M0 480H1600" stroke="#94a3b8" stroke-width="1"/>
    <path d="M0 576H1600" stroke="#94a3b8" stroke-width="1"/>
    <path d="M0 672H1600" stroke="#94a3b8" stroke-width="1"/>
    <path d="M0 768H1600" stroke="#94a3b8" stroke-width="1"/>
    <path d="M160 0V900" stroke="#94a3b8" stroke-width="1"/>
    <path d="M320 0V900" stroke="#94a3b8" stroke-width="1"/>
    <path d="M480 0V900" stroke="#94a3b8" stroke-width="1"/>
    <path d="M640 0V900" stroke="#94a3b8" stroke-width="1"/>
    <path d="M800 0V900" stroke="#94a3b8" stroke-width="1"/>
    <path d="M960 0V900" stroke="#94a3b8" stroke-width="1"/>
    <path d="M1120 0V900" stroke="#94a3b8" stroke-width="1"/>
    <path d="M1280 0V900" stroke="#94a3b8" stroke-width="1"/>
    <path d="M1440 0V900" stroke="#94a3b8" stroke-width="1"/>
  </g>

  <ellipse cx="1170" cy="268" rx="230" ry="170" fill="#ef4444" opacity="0.28" filter="url(#soft)"/>
  <ellipse cx="440" cy="186" rx="180" ry="130" fill="#38bdf8" opacity="0.1" filter="url(#soft)"/>

  <rect x="290" y="156" width="1020" height="448" rx="28" fill="#0b1220" stroke="#334155" stroke-width="2"/>
  <rect x="360" y="210" width="880" height="42" rx="8" fill="#1e293b"/>
  <rect x="390" y="226" width="230" height="10" rx="5" fill="#94a3b8" opacity="0.8"/>
  <rect x="980" y="226" width="190" height="10" rx="5" fill="#ef4444" opacity="0.8"/>

  <g opacity="0.94">
    <rect x="438" y="278" width="724" height="246" rx="16" fill="#111827" stroke="#475569" stroke-width="2"/>
    <rect x="474" y="316" width="652" height="24" rx="8" fill="#dc2626" opacity="0.88"/>
    <rect x="474" y="362" width="480" height="20" rx="7" fill="#e2e8f0" opacity="0.72"/>
    <rect x="474" y="398" width="420" height="18" rx="7" fill="#94a3b8" opacity="0.58"/>
    <rect x="474" y="432" width="350" height="18" rx="7" fill="#94a3b8" opacity="0.42"/>
    <rect x="960" y="360" width="136" height="118" rx="12" fill="#0f172a" stroke="#ef4444" stroke-width="2"/>
    <path d="M998 454L1028 404L1054 438L1088 386" stroke="#ef4444" stroke-width="8" stroke-linecap="round" stroke-linejoin="round"/>
  </g>

  <g opacity="0.82">
    <path d="M570 620H1030V706H570V620Z" fill="#09111f"/>
    <path d="M586 620H1014L972 546H628L586 620Z" fill="#0f172a"/>
    <rect x="630" y="646" width="40" height="60" fill="#1e293b"/>
    <rect x="708" y="646" width="40" height="60" fill="#1e293b"/>
    <rect x="786" y="646" width="40" height="60" fill="#1e293b"/>
    <rect x="864" y="646" width="40" height="60" fill="#1e293b"/>
    <rect x="942" y="646" width="40" height="60" fill="#1e293b"/>
  </g>

  <g opacity="0.76">
    <path d="M180 760C232 722 284 722 336 760V900H180V760Z" fill="#050b16"/>
    <path d="M312 744C366 700 420 700 474 744V900H312V744Z" fill="#050b16"/>
    <path d="M458 768C516 728 574 728 632 768V900H458V768Z" fill="#050b16"/>
    <path d="M1002 750C1060 712 1118 712 1176 750V900H1002V750Z" fill="#050b16"/>
    <path d="M1134 734C1192 692 1250 692 1308 734V900H1134V734Z" fill="#050b16"/>
    <path d="M1270 758C1324 722 1378 722 1432 758V900H1270V758Z" fill="#050b16"/>
  </g>

  <rect x="1080" y="84" width="280" height="44" rx="22" fill="url(#redGlow)" opacity="0.92"/>
  <rect x="118" y="112" width="242" height="36" rx="18" fill="#111827" stroke="#334155" stroke-width="2"/>
</svg>
