<svg width="1600" height="900" viewBox="0 0 1600 900" fill="none" xmlns="http://www.w3.org/2000/svg">
  <defs>
    <linearGradient id="balanceBg" x1="180" y1="60" x2="1420" y2="840" gradientUnits="userSpaceOnUse">
      <stop offset="0" stop-color="#0f172a"/>
      <stop offset="0.46" stop-color="#111827"/>
      <stop offset="1" stop-color="#020617"/>
    </linearGradient>
    <filter id="balanceGlow">
      <feGaussianBlur stdDeviation="30"/>
    </filter>
  </defs>
  <rect width="1600" height="900" fill="url(#balanceBg)"/>
  <ellipse cx="1130" cy="206" rx="260" ry="140" fill="#ef4444" opacity="0.2" filter="url(#balanceGlow)"/>
  <ellipse cx="420" cy="206" rx="180" ry="120" fill="#38bdf8" opacity="0.12" filter="url(#balanceGlow)"/>

  <rect x="160" y="128" width="1280" height="644" rx="34" fill="#07101d" stroke="#334155" stroke-width="2"/>
  <rect x="230" y="188" width="1140" height="90" rx="24" fill="#111827" stroke="#475569" stroke-width="2"/>
  <rect x="284" y="226" width="238" height="18" rx="9" fill="#f8fafc" opacity="0.82"/>
  <rect x="1044" y="226" width="246" height="18" rx="9" fill="#ef4444" opacity="0.66"/>

  <rect x="246" y="336" width="464" height="350" rx="28" fill="#0f172a" stroke="#ef4444" stroke-width="4"/>
  <rect x="312" y="390" width="184" height="18" rx="9" fill="#f8fafc" opacity="0.84"/>
  <rect x="312" y="426" width="220" height="14" rx="7" fill="#94a3b8" opacity="0.5"/>
  <rect x="312" y="458" width="170" height="14" rx="7" fill="#94a3b8" opacity="0.34"/>
  <rect x="312" y="522" width="280" height="30" rx="15" fill="#dc2626" opacity="0.56"/>
  <rect x="312" y="572" width="224" height="22" rx="11" fill="#7f1d1d" opacity="0.42"/>

  <rect x="890" y="336" width="464" height="350" rx="28" fill="#0f172a" stroke="#38bdf8" stroke-width="4"/>
  <rect x="956" y="390" width="184" height="18" rx="9" fill="#f8fafc" opacity="0.84"/>
  <rect x="956" y="426" width="220" height="14" rx="7" fill="#94a3b8" opacity="0.5"/>
  <rect x="956" y="458" width="170" height="14" rx="7" fill="#94a3b8" opacity="0.34"/>
  <rect x="956" y="522" width="248" height="28" rx="14" fill="#38bdf8" opacity="0.52"/>
  <rect x="956" y="570" width="206" height="22" rx="11" fill="#1d4ed8" opacity="0.4"/>

  <circle cx="800" cy="512" r="98" fill="#111827" stroke="#f59e0b" stroke-width="5"/>
  <circle cx="800" cy="512" r="138" fill="#f59e0b" opacity="0.12"/>
  <path d="M800 458V564" stroke="#f8fafc" stroke-width="14" stroke-linecap="round"/>
  <path d="M748 512H852" stroke="#f8fafc" stroke-width="14" stroke-linecap="round"/>
</svg>
