<svg xmlns="http://www.w3.org/2000/svg" width="1920" height="1080" viewBox="0 0 1920 1080" fill="none">
  <defs>
    <linearGradient id="bg" x1="180" y1="70" x2="1740" y2="1010" gradientUnits="userSpaceOnUse">
      <stop stop-color="#07111B"/>
      <stop offset="0.56" stop-color="#0F172A"/>
      <stop offset="1" stop-color="#020617"/>
    </linearGradient>
  </defs>
  <rect width="1920" height="1080" fill="url(#bg)"/>
  <g opacity="0.1">
    <path d="M0 144H1920M0 288H1920M0 432H1920M0 576H1920M0 720H1920M0 864H1920" stroke="#E2E8F0"/>
    <path d="M180 0V1080M360 0V1080M540 0V1080M720 0V1080M900 0V1080M1080 0V1080M1260 0V1080M1440 0V1080M1620 0V1080" stroke="#CBD5E1"/>
  </g>
  <g opacity="0.94">
    <rect x="116" y="148" width="822" height="786" rx="32" fill="#0F172A" stroke="#334155" stroke-width="2"/>
    <rect x="202" y="592" width="650" height="224" rx="28" fill="#0B1220" stroke="#334155" stroke-width="2"/>
    <rect x="248" y="706" width="560" height="28" rx="14" fill="#14B8A6"/>
    <path d="M282 592L440 432L602 592" stroke="#CBD5E1" stroke-width="16" stroke-linecap="round" stroke-linejoin="round"/>
    <path d="M448 592L604 378L758 592" stroke="#CBD5E1" stroke-width="16" stroke-linecap="round" stroke-linejoin="round"/>
    <rect x="276" y="658" width="64" height="144" rx="18" fill="#1E40AF"/>
    <rect x="386" y="628" width="64" height="174" rx="18" fill="#EF4444"/>
    <rect x="496" y="594" width="64" height="208" rx="18" fill="#0F766E"/>
    <rect x="606" y="642" width="64" height="160" rx="18" fill="#F59E0B"/>
  </g>
  <g opacity="0.9">
    <rect x="1034" y="184" width="612" height="714" rx="32" fill="#0F172A" stroke="#334155" stroke-width="2"/>
    <rect x="1100" y="262" width="480" height="128" rx="28" fill="#111827"/>
    <path d="M1150 318H1500" stroke="#F8FAFC" stroke-width="18" stroke-linecap="round"/>
    <path d="M1150 358H1452" stroke="#64748B" stroke-width="12" stroke-linecap="round"/>
    <rect x="1100" y="470" width="204" height="264" rx="28" fill="#111827"/>
    <rect x="1160" y="532" width="84" height="136" rx="20" fill="#38BDF8"/>
    <rect x="1370" y="470" width="210" height="264" rx="28" fill="#111827"/>
    <path d="M1422 546H1524M1422 594H1542M1422 642H1496" stroke="#E2E8F0" stroke-width="16" stroke-linecap="round"/>
    <rect x="1418" y="678" width="122" height="28" rx="14" fill="#EF4444"/>
    <path d="M1228 734H1450" stroke="#14B8A6" stroke-width="10" stroke-linecap="round"/>
  </g>
</svg>
