<svg xmlns="http://www.w3.org/2000/svg" width="1920" height="1080" viewBox="0 0 1920 1080" fill="none">
  <defs>
    <linearGradient id="bg" x1="140" y1="60" x2="1740" y2="1020" gradientUnits="userSpaceOnUse">
      <stop stop-color="#07111B"/>
      <stop offset="0.56" stop-color="#0F172A"/>
      <stop offset="1" stop-color="#020617"/>
    </linearGradient>
    <linearGradient id="tealGlow" x1="240" y1="150" x2="780" y2="820" gradientUnits="userSpaceOnUse">
      <stop stop-color="#14B8A6" stop-opacity="0.34"/>
      <stop offset="1" stop-color="#14B8A6" stop-opacity="0"/>
    </linearGradient>
    <linearGradient id="redGlow" x1="1220" y1="120" x2="1720" y2="720" gradientUnits="userSpaceOnUse">
      <stop stop-color="#EF4444" stop-opacity="0.28"/>
      <stop offset="1" stop-color="#EF4444" stop-opacity="0"/>
    </linearGradient>
  </defs>
  <rect width="1920" height="1080" fill="url(#bg)"/>
  <circle cx="518" cy="418" r="286" fill="url(#tealGlow)"/>
  <circle cx="1456" cy="330" r="252" fill="url(#redGlow)"/>
  <g opacity="0.1">
    <path d="M0 135H1920M0 270H1920M0 405H1920M0 540H1920M0 675H1920M0 810H1920M0 945H1920" stroke="#E2E8F0"/>
    <path d="M160 0V1080M320 0V1080M480 0V1080M640 0V1080M800 0V1080M960 0V1080M1120 0V1080M1280 0V1080M1440 0V1080M1600 0V1080M1760 0V1080" stroke="#CBD5E1"/>
  </g>
  <g opacity="0.92">
    <rect x="124" y="156" width="646" height="770" rx="30" fill="#0F172A" stroke="#334155" stroke-width="2"/>
    <rect x="168" y="202" width="558" height="112" rx="18" fill="#111827"/>
    <rect x="196" y="234" width="192" height="18" rx="9" fill="#14B8A6"/>
    <rect x="196" y="264" width="250" height="14" rx="7" fill="#CBD5E1" opacity="0.82"/>
    <rect x="170" y="364" width="558" height="506" rx="26" fill="#020617" stroke="#334155" stroke-width="2"/>
    <path d="M232 432L306 384L380 432L454 384L528 432L602 384L676 432" stroke="#38BDF8" stroke-width="8" stroke-linecap="round" stroke-linejoin="round"/>
    <circle cx="232" cy="432" r="18" fill="#38BDF8"/>
    <circle cx="306" cy="384" r="18" fill="#14B8A6"/>
    <circle cx="380" cy="432" r="18" fill="#38BDF8"/>
    <circle cx="454" cy="384" r="18" fill="#14B8A6"/>
    <circle cx="528" cy="432" r="18" fill="#38BDF8"/>
    <circle cx="602" cy="384" r="18" fill="#14B8A6"/>
    <circle cx="676" cy="432" r="18" fill="#38BDF8"/>
    <path d="M236 538H666M236 588H618M236 638H642" stroke="#E2E8F0" stroke-width="16" stroke-linecap="round" opacity="0.84"/>
    <rect x="236" y="728" width="196" height="72" rx="18" fill="#EF4444"/>
    <rect x="460" y="728" width="206" height="72" rx="18" fill="#1E293B"/>
  </g>
  <g opacity="0.9">
    <rect x="920" y="158" width="780" height="768" rx="32" fill="#0F172A" stroke="#334155" stroke-width="2"/>
    <path d="M1090 298C1090 184 1182 92 1296 92H1324C1438 92 1530 184 1530 298V360H1090V298Z" fill="#111827" opacity="0.8"/>
    <path d="M1124 362H1496V640C1496 745 1411 830 1306 830C1201 830 1116 745 1116 640L1124 362Z" fill="#111827" stroke="#475569" stroke-width="2"/>
    <path d="M1306 466C1360 466 1404 510 1404 564C1404 607 1376 643 1338 656V724H1274V656C1236 643 1208 607 1208 564C1208 510 1252 466 1306 466Z" fill="#F8FAFC"/>
    <circle cx="1306" cy="564" r="30" fill="#0F172A"/>
    <path d="M1008 834H1606" stroke="#14B8A6" stroke-width="12" stroke-linecap="round"/>
  </g>
</svg>
