<svg xmlns="http://www.w3.org/2000/svg" width="1920" height="1080" viewBox="0 0 1920 1080" fill="none">
  <defs>
    <linearGradient id="bg" x1="120" y1="80" x2="1760" y2="1000" gradientUnits="userSpaceOnUse">
      <stop stop-color="#0B1220"/>
      <stop offset="0.52" stop-color="#111827"/>
      <stop offset="1" stop-color="#020617"/>
    </linearGradient>
    <linearGradient id="blueGlow" x1="250" y1="160" x2="770" y2="780" gradientUnits="userSpaceOnUse">
      <stop stop-color="#2563EB" stop-opacity="0.50"/>
      <stop offset="1" stop-color="#2563EB" stop-opacity="0"/>
    </linearGradient>
    <linearGradient id="goldGlow" x1="1180" y1="120" x2="1700" y2="720" gradientUnits="userSpaceOnUse">
      <stop stop-color="#F59E0B" stop-opacity="0.34"/>
      <stop offset="1" stop-color="#F59E0B" stop-opacity="0"/>
    </linearGradient>
  </defs>
  <rect width="1920" height="1080" fill="url(#bg)"/>
  <g opacity="0.11">
    <path d="M0 120H1920M0 240H1920M0 360H1920M0 480H1920M0 600H1920M0 720H1920M0 840H1920M0 960H1920" stroke="#E2E8F0"/>
    <path d="M160 0V1080M320 0V1080M480 0V1080M640 0V1080M800 0V1080M960 0V1080M1120 0V1080M1280 0V1080M1440 0V1080M1600 0V1080M1760 0V1080" stroke="#CBD5E1"/>
  </g>
  <circle cx="520" cy="410" r="280" fill="url(#blueGlow)"/>
  <circle cx="1430" cy="330" r="250" fill="url(#goldGlow)"/>
  <g opacity="0.9">
    <rect x="116" y="154" width="642" height="770" rx="28" fill="#0F172A" stroke="#334155" stroke-width="2"/>
    <rect x="160" y="198" width="560" height="96" rx="16" fill="#111827"/>
    <rect x="188" y="226" width="182" height="18" rx="9" fill="#2563EB"/>
    <rect x="188" y="258" width="246" height="14" rx="7" fill="#CBD5E1" opacity="0.82"/>
    <rect x="186" y="336" width="510" height="138" rx="18" fill="#020617" stroke="#334155" stroke-width="2"/>
    <rect x="218" y="370" width="230" height="18" rx="9" fill="#F8FAFC" opacity="0.9"/>
    <rect x="218" y="406" width="422" height="14" rx="7" fill="#475569"/>
    <rect x="218" y="434" width="376" height="14" rx="7" fill="#475569"/>
    <rect x="186" y="522" width="242" height="72" rx="18" fill="#1D4ED8"/>
    <rect x="452" y="522" width="244" height="72" rx="18" fill="#1E293B"/>
    <rect x="186" y="632" width="510" height="228" rx="24" fill="#0B1220" stroke="#334155" stroke-width="2"/>
    <rect x="220" y="672" width="138" height="110" rx="18" fill="#F59E0B" opacity="0.96"/>
    <rect x="388" y="672" width="124" height="110" rx="18" fill="#1E40AF"/>
    <rect x="542" y="672" width="120" height="110" rx="18" fill="#0F766E"/>
    <rect x="220" y="808" width="260" height="16" rx="8" fill="#F8FAFC" opacity="0.88"/>
    <rect x="220" y="838" width="376" height="14" rx="7" fill="#64748B"/>
  </g>
  <g opacity="0.88">
    <rect x="914" y="160" width="782" height="764" rx="30" fill="#0F172A" stroke="#334155" stroke-width="2"/>
    <rect x="978" y="216" width="656" height="172" rx="26" fill="#111827"/>
    <path d="M1040 296H1288M1040 332H1210" stroke="#E2E8F0" stroke-width="16" stroke-linecap="round" opacity="0.84"/>
    <rect x="1362" y="256" width="204" height="88" rx="22" fill="#0B1220" stroke="#475569" stroke-width="2"/>
    <path d="M1408 290H1520" stroke="#F8FAFC" stroke-width="16" stroke-linecap="round"/>
    <path d="M1408 320H1490" stroke="#64748B" stroke-width="10" stroke-linecap="round"/>
    <rect x="1034" y="470" width="592" height="290" rx="28" fill="#020617" stroke="#334155" stroke-width="2"/>
    <path d="M1120 560L1240 500L1360 560L1480 494L1550 548" stroke="#38BDF8" stroke-width="8" stroke-linecap="round" stroke-linejoin="round"/>
    <path d="M1120 622L1240 562L1360 622L1480 556L1550 610" stroke="#F59E0B" stroke-width="8" stroke-linecap="round" stroke-linejoin="round"/>
    <circle cx="1120" cy="560" r="18" fill="#38BDF8"/>
    <circle cx="1240" cy="500" r="18" fill="#38BDF8"/>
    <circle cx="1360" cy="560" r="18" fill="#38BDF8"/>
    <circle cx="1480" cy="494" r="18" fill="#38BDF8"/>
    <circle cx="1550" cy="548" r="18" fill="#38BDF8"/>
    <circle cx="1120" cy="622" r="18" fill="#F59E0B"/>
    <circle cx="1240" cy="562" r="18" fill="#F59E0B"/>
    <circle cx="1360" cy="622" r="18" fill="#F59E0B"/>
    <circle cx="1480" cy="556" r="18" fill="#F59E0B"/>
    <circle cx="1550" cy="610" r="18" fill="#F59E0B"/>
    <rect x="1008" y="810" width="192" height="54" rx="16" fill="#1E40AF"/>
    <rect x="1228" y="810" width="206" height="54" rx="16" fill="#92400E"/>
    <rect x="1462" y="810" width="172" height="54" rx="16" fill="#0F766E"/>
  </g>
</svg>
