<svg xmlns="http://www.w3.org/2000/svg" width="1920" height="1080" viewBox="0 0 1920 1080" fill="none">
  <defs>
    <linearGradient id="bg" x1="160" y1="70" x2="1740" y2="1010" gradientUnits="userSpaceOnUse">
      <stop stop-color="#050B16"/>
      <stop offset="0.5" stop-color="#0F172A"/>
      <stop offset="1" stop-color="#020617"/>
    </linearGradient>
    <linearGradient id="band" x1="280" y1="0" x2="1640" y2="0" gradientUnits="userSpaceOnUse">
      <stop stop-color="#1E40AF"/>
      <stop offset="0.5" stop-color="#F59E0B"/>
      <stop offset="1" stop-color="#0F766E"/>
    </linearGradient>
  </defs>
  <rect width="1920" height="1080" fill="url(#bg)"/>
  <g opacity="0.1">
    <path d="M0 150H1920M0 300H1920M0 450H1920M0 600H1920M0 750H1920M0 900H1920" stroke="#E2E8F0"/>
    <path d="M180 0V1080M360 0V1080M540 0V1080M720 0V1080M900 0V1080M1080 0V1080M1260 0V1080M1440 0V1080M1620 0V1080" stroke="#CBD5E1"/>
  </g>
  <rect x="204" y="164" width="1512" height="752" rx="34" fill="#0F172A" stroke="#334155" stroke-width="2"/>
  <rect x="204" y="164" width="1512" height="22" fill="url(#band)"/>
  <rect x="302" y="266" width="1316" height="208" rx="28" fill="#020617" stroke="#334155" stroke-width="2"/>
  <path d="M386 348H944M386 398H1012" stroke="#F8FAFC" stroke-width="28" stroke-linecap="round" opacity="0.92"/>
  <rect x="1184" y="300" width="330" height="132" rx="28" fill="#111827"/>
  <rect x="1234" y="346" width="96" height="40" rx="14" fill="#1E40AF"/>
  <rect x="1354" y="346" width="104" height="40" rx="14" fill="#F59E0B"/>
  <g opacity="0.92">
    <circle cx="578" cy="664" r="120" fill="#111827" stroke="#475569" stroke-width="2"/>
    <path d="M578 594L644 626V700L578 734L512 700V626L578 594Z" fill="#1E40AF"/>
    <path d="M578 626L612 644V680L578 698L544 680V644L578 626Z" fill="#F8FAFC"/>
    <circle cx="974" cy="664" r="120" fill="#111827" stroke="#475569" stroke-width="2"/>
    <path d="M974 584L1048 664L974 744L900 664L974 584Z" fill="#F59E0B"/>
    <path d="M974 628L1010 664L974 700L938 664L974 628Z" fill="#0F172A"/>
    <circle cx="1370" cy="664" r="120" fill="#111827" stroke="#475569" stroke-width="2"/>
    <path d="M1314 706H1426V734H1314V706Z" fill="#0F766E"/>
    <path d="M1336 624H1404V706H1336V624Z" fill="#F8FAFC"/>
    <path d="M1354 586H1386V624H1354V586Z" fill="#38BDF8"/>
  </g>
</svg>
