<svg xmlns="http://www.w3.org/2000/svg" width="1920" height="1080" viewBox="0 0 1920 1080" fill="none">
  <defs>
    <linearGradient id="bg" x1="180" y1="60" x2="1720" y2="1020" gradientUnits="userSpaceOnUse">
      <stop stop-color="#0F172A"/>
      <stop offset="0.55" stop-color="#111827"/>
      <stop offset="1" stop-color="#030712"/>
    </linearGradient>
    <linearGradient id="warm" x1="280" y1="140" x2="760" y2="760" gradientUnits="userSpaceOnUse">
      <stop stop-color="#F59E0B" stop-opacity="0.32"/>
      <stop offset="1" stop-color="#F59E0B" stop-opacity="0"/>
    </linearGradient>
  </defs>
  <rect width="1920" height="1080" fill="url(#bg)"/>
  <circle cx="590" cy="390" r="260" fill="url(#warm)"/>
  <g opacity="0.12">
    <path d="M0 136H1920M0 272H1920M0 408H1920M0 544H1920M0 680H1920M0 816H1920M0 952H1920" stroke="#E5E7EB"/>
    <path d="M192 0V1080M384 0V1080M576 0V1080M768 0V1080M960 0V1080M1152 0V1080M1344 0V1080M1536 0V1080M1728 0V1080" stroke="#CBD5E1"/>
  </g>
  <g opacity="0.92">
    <rect x="160" y="120" width="720" height="840" rx="30" fill="#111827" stroke="#334155" stroke-width="2"/>
    <rect x="240" y="164" width="564" height="728" rx="24" fill="#F8FAFC"/>
    <rect x="286" y="226" width="184" height="20" rx="10" fill="#1D4ED8"/>
    <rect x="286" y="266" width="236" height="14" rx="7" fill="#64748B"/>
    <path d="M286 336H722M286 390H722M286 444H686M286 498H722M286 552H640M286 606H722M286 660H696" stroke="#334155" stroke-width="18" stroke-linecap="round" opacity="0.76"/>
    <rect x="286" y="736" width="206" height="72" rx="18" fill="#F59E0B"/>
    <rect x="518" y="736" width="204" height="72" rx="18" fill="#1E293B"/>
  </g>
  <g opacity="0.88">
    <rect x="1020" y="158" width="700" height="772" rx="34" fill="#0B1220" stroke="#334155" stroke-width="2"/>
    <circle cx="1368" cy="474" r="196" fill="#111827" stroke="#475569" stroke-width="2"/>
    <circle cx="1368" cy="474" r="128" fill="none" stroke="#F59E0B" stroke-width="22"/>
    <circle cx="1368" cy="474" r="72" fill="#1E40AF" opacity="0.92"/>
    <path d="M1368 246V304M1368 644V702M1140 474H1198M1538 474H1596" stroke="#E2E8F0" stroke-width="14" stroke-linecap="round" opacity="0.84"/>
    <path d="M1206 332L1248 374M1488 574L1530 616M1206 616L1248 574M1488 374L1530 332" stroke="#E2E8F0" stroke-width="14" stroke-linecap="round" opacity="0.84"/>
    <rect x="1112" y="760" width="512" height="74" rx="24" fill="#111827"/>
    <path d="M1170 798H1326M1170 826H1438M1462 798H1568" stroke="#F8FAFC" stroke-width="14" stroke-linecap="round" opacity="0.9"/>
  </g>
</svg>
