<svg xmlns="http://www.w3.org/2000/svg" width="1920" height="1080" viewBox="0 0 1920 1080" fill="none">
  <defs>
    <linearGradient id="bg" x1="160" y1="80" x2="1760" y2="1000" gradientUnits="userSpaceOnUse">
      <stop stop-color="#08111E"/>
      <stop offset="0.58" stop-color="#111827"/>
      <stop offset="1" stop-color="#020617"/>
    </linearGradient>
  </defs>
  <rect width="1920" height="1080" fill="url(#bg)"/>
  <g opacity="0.1">
    <path d="M0 144H1920M0 288H1920M0 432H1920M0 576H1920M0 720H1920M0 864H1920" stroke="#E2E8F0"/>
    <path d="M192 0V1080M384 0V1080M576 0V1080M768 0V1080M960 0V1080M1152 0V1080M1344 0V1080M1536 0V1080M1728 0V1080" stroke="#CBD5E1"/>
  </g>
  <g opacity="0.92">
    <rect x="136" y="166" width="720" height="748" rx="32" fill="#0F172A" stroke="#334155" stroke-width="2"/>
    <rect x="206" y="242" width="278" height="174" rx="26" fill="#111827"/>
    <path d="M262 296H424M262 338H394" stroke="#F8FAFC" stroke-width="16" stroke-linecap="round"/>
    <rect x="508" y="242" width="280" height="174" rx="26" fill="#111827"/>
    <path d="M564 296H726M564 338H698" stroke="#F8FAFC" stroke-width="16" stroke-linecap="round"/>
    <path d="M346 416L470 496L650 416" stroke="#EF4444" stroke-width="10" stroke-linecap="round"/>
    <rect x="206" y="500" width="582" height="332" rx="30" fill="#020617" stroke="#334155" stroke-width="2"/>
    <rect x="262" y="556" width="122" height="210" rx="22" fill="#111827"/>
    <circle cx="324" cy="720" r="12" fill="#CBD5E1"/>
    <rect x="454" y="556" width="278" height="92" rx="22" fill="#991B1B"/>
    <rect x="454" y="680" width="278" height="86" rx="22" fill="#1E293B"/>
    <path d="M486 602H652M486 716H654" stroke="#F8FAFC" stroke-width="16" stroke-linecap="round" opacity="0.9"/>
  </g>
  <g opacity="0.9">
    <rect x="998" y="176" width="642" height="716" rx="32" fill="#0F172A" stroke="#334155" stroke-width="2"/>
    <circle cx="1320" cy="378" r="140" fill="#111827" stroke="#475569" stroke-width="2"/>
    <path d="M1252 344L1320 412L1388 344" stroke="#14B8A6" stroke-width="16" stroke-linecap="round" stroke-linejoin="round"/>
    <path d="M1252 426L1320 494L1388 426" stroke="#EF4444" stroke-width="16" stroke-linecap="round" stroke-linejoin="round"/>
    <rect x="1096" y="584" width="448" height="184" rx="28" fill="#111827"/>
    <path d="M1150 644H1492M1150 694H1432" stroke="#E2E8F0" stroke-width="18" stroke-linecap="round"/>
    <rect x="1150" y="724" width="138" height="26" rx="13" fill="#EF4444"/>
    <rect x="1308" y="724" width="162" height="26" rx="13" fill="#14B8A6"/>
  </g>
</svg>
