<svg xmlns="http://www.w3.org/2000/svg" width="1920" height="1080" viewBox="0 0 1920 1080" fill="none">
  <defs>
    <linearGradient id="bg" x1="140" y1="60" x2="1760" y2="1000" gradientUnits="userSpaceOnUse">
      <stop stop-color="#09111F"/>
      <stop offset="0.56" stop-color="#111827"/>
      <stop offset="1" stop-color="#020617"/>
    </linearGradient>
    <linearGradient id="amber" x1="1180" y1="140" x2="1700" y2="780" gradientUnits="userSpaceOnUse">
      <stop stop-color="#F59E0B" stop-opacity="0.30"/>
      <stop offset="1" stop-color="#F59E0B" stop-opacity="0"/>
    </linearGradient>
  </defs>
  <rect width="1920" height="1080" fill="url(#bg)"/>
  <circle cx="1420" cy="370" r="260" fill="url(#amber)"/>
  <g opacity="0.1">
    <path d="M0 150H1920M0 300H1920M0 450H1920M0 600H1920M0 750H1920M0 900H1920" stroke="#E2E8F0"/>
    <path d="M192 0V1080M384 0V1080M576 0V1080M768 0V1080M960 0V1080M1152 0V1080M1344 0V1080M1536 0V1080M1728 0V1080" stroke="#CBD5E1"/>
  </g>
  <g opacity="0.92">
    <rect x="136" y="170" width="720" height="740" rx="30" fill="#0F172A" stroke="#334155" stroke-width="2"/>
    <path d="M208 646H786V770H208V646Z" fill="#0B1220" stroke="#334155" stroke-width="2"/>
    <path d="M246 646L392 520H604L752 646" stroke="#CBD5E1" stroke-width="14" stroke-linecap="round" stroke-linejoin="round"/>
    <rect x="304" y="578" width="108" height="68" rx="18" fill="#1E40AF"/>
    <rect x="470" y="564" width="112" height="82" rx="18" fill="#F59E0B"/>
    <rect x="640" y="592" width="92" height="54" rx="16" fill="#0F766E"/>
    <path d="M242 814H752" stroke="#14B8A6" stroke-width="12" stroke-linecap="round"/>
  </g>
  <g opacity="0.9">
    <rect x="980" y="180" width="704" height="722" rx="32" fill="#0F172A" stroke="#334155" stroke-width="2"/>
    <rect x="1054" y="248" width="560" height="126" rx="28" fill="#111827"/>
    <path d="M1106 310H1562" stroke="#F8FAFC" stroke-width="18" stroke-linecap="round"/>
    <path d="M1106 348H1466" stroke="#64748B" stroke-width="12" stroke-linecap="round"/>
    <rect x="1060" y="470" width="250" height="280" rx="28" fill="#111827"/>
    <circle cx="1186" cy="610" r="82" fill="#1E40AF"/>
    <path d="M1186 562V658M1138 610H1234" stroke="#F8FAFC" stroke-width="18" stroke-linecap="round"/>
    <rect x="1380" y="470" width="236" height="280" rx="28" fill="#111827"/>
    <path d="M1434 544H1562M1434 592H1518M1434 640H1546" stroke="#E2E8F0" stroke-width="16" stroke-linecap="round"/>
    <rect x="1434" y="684" width="136" height="28" rx="14" fill="#F59E0B"/>
  </g>
</svg>
