<svg xmlns="http://www.w3.org/2000/svg" width="1920" height="1080" viewBox="0 0 1920 1080" fill="none">
  <defs>
    <linearGradient id="bg" x1="180" y1="90" x2="1740" y2="980" gradientUnits="userSpaceOnUse">
      <stop stop-color="#09111F"/>
      <stop offset="0.56" stop-color="#0F172A"/>
      <stop offset="1" stop-color="#030712"/>
    </linearGradient>
    <linearGradient id="blue" x1="220" y1="120" x2="760" y2="860" gradientUnits="userSpaceOnUse">
      <stop stop-color="#38BDF8" stop-opacity="0.30"/>
      <stop offset="1" stop-color="#38BDF8" stop-opacity="0"/>
    </linearGradient>
  </defs>
  <rect width="1920" height="1080" fill="url(#bg)"/>
  <circle cx="540" cy="440" r="300" fill="url(#blue)"/>
  <g opacity="0.1">
    <path d="M0 144H1920M0 288H1920M0 432H1920M0 576H1920M0 720H1920M0 864H1920" stroke="#E2E8F0"/>
    <path d="M192 0V1080M384 0V1080M576 0V1080M768 0V1080M960 0V1080M1152 0V1080M1344 0V1080M1536 0V1080M1728 0V1080" stroke="#CBD5E1"/>
  </g>
  <g opacity="0.92">
    <rect x="144" y="138" width="680" height="802" rx="32" fill="#0F172A" stroke="#334155" stroke-width="2"/>
    <rect x="210" y="194" width="548" height="130" rx="24" fill="#111827"/>
    <rect x="246" y="236" width="138" height="18" rx="9" fill="#F59E0B"/>
    <rect x="246" y="268" width="226" height="14" rx="7" fill="#CBD5E1" opacity="0.82"/>
    <rect x="212" y="384" width="548" height="486" rx="28" fill="#020617" stroke="#334155" stroke-width="2"/>
    <path d="M308 508H452M308 548H514M308 588H486" stroke="#E2E8F0" stroke-width="16" stroke-linecap="round" opacity="0.86"/>
    <rect x="566" y="488" width="120" height="152" rx="24" fill="#1E40AF"/>
    <path d="M626 520C653 520 676 542 676 570V600H576V570C576 542 599 520 626 520Z" fill="#0B1220"/>
    <rect x="596" y="592" width="60" height="90" rx="20" fill="#F8FAFC"/>
    <circle cx="626" cy="632" r="16" fill="#1E293B"/>
    <path d="M626 648V672" stroke="#1E293B" stroke-width="10" stroke-linecap="round"/>
    <circle cx="312" cy="740" r="18" fill="#38BDF8"/>
    <circle cx="464" cy="700" r="18" fill="#F59E0B"/>
    <circle cx="602" cy="772" r="18" fill="#38BDF8"/>
    <path d="M312 740L464 700L602 772" stroke="#94A3B8" stroke-width="8" stroke-linecap="round"/>
  </g>
  <g opacity="0.88">
    <rect x="1002" y="172" width="724" height="742" rx="32" fill="#0F172A" stroke="#334155" stroke-width="2"/>
    <rect x="1062" y="228" width="246" height="520" rx="28" fill="#111827"/>
    <rect x="1100" y="284" width="172" height="172" rx="26" fill="#1E40AF"/>
    <rect x="1100" y="490" width="172" height="52" rx="18" fill="#0B1220" stroke="#475569" stroke-width="2"/>
    <rect x="1100" y="564" width="172" height="52" rx="18" fill="#0B1220" stroke="#475569" stroke-width="2"/>
    <rect x="1100" y="638" width="172" height="52" rx="18" fill="#0B1220" stroke="#475569" stroke-width="2"/>
    <path d="M1388 322H1612M1388 388H1582M1388 454H1548" stroke="#F8FAFC" stroke-width="18" stroke-linecap="round" opacity="0.9"/>
    <rect x="1388" y="548" width="224" height="160" rx="28" fill="#111827"/>
    <path d="M1432 598H1568M1432 636H1600M1432 674H1524" stroke="#CBD5E1" stroke-width="16" stroke-linecap="round" opacity="0.82"/>
    <path d="M1308 616H1388" stroke="#F59E0B" stroke-width="10" stroke-linecap="round"/>
  </g>
</svg>
