<svg width="1920" height="1080" viewBox="0 0 1920 1080" fill="none" xmlns="http://www.w3.org/2000/svg">
  <defs>
    <linearGradient id="bg" x1="160" y1="120" x2="1700" y2="920" gradientUnits="userSpaceOnUse">
      <stop stop-color="#081321"/>
      <stop offset="0.5" stop-color="#0B182C"/>
      <stop offset="1" stop-color="#09111C"/>
    </linearGradient>
  </defs>
  <rect width="1920" height="1080" fill="url(#bg)"/>
  <rect x="88" y="88" width="1744" height="904" rx="34" fill="rgba(255,255,255,0.02)" stroke="rgba(148,163,184,0.14)" stroke-width="2"/>
  <circle cx="960" cy="540" r="220" fill="#0E1A31" stroke="#2A4468" stroke-width="3"/>
  <circle cx="960" cy="540" r="160" fill="none" stroke="#38BDF8" stroke-width="3" stroke-dasharray="14 16"/>
  <circle cx="960" cy="540" r="86" fill="#12243F" stroke="#67E8F9" stroke-width="3"/>
  <path d="M960 454V626" stroke="#E2E8F0" stroke-opacity="0.3" stroke-width="4"/>
  <path d="M874 540H1046" stroke="#E2E8F0" stroke-opacity="0.3" stroke-width="4"/>
  <rect x="338" y="228" width="320" height="186" rx="28" fill="#0F1A2D" stroke="#284066" stroke-width="3"/>
  <rect x="1262" y="228" width="320" height="186" rx="28" fill="#0F1A2D" stroke="#284066" stroke-width="3"/>
  <rect x="338" y="666" width="320" height="186" rx="28" fill="#0F1A2D" stroke="#284066" stroke-width="3"/>
  <rect x="1262" y="666" width="320" height="186" rx="28" fill="#0F1A2D" stroke="#284066" stroke-width="3"/>
  <path d="M658 320L780 430" stroke="#38BDF8" stroke-width="10" stroke-linecap="round"/>
  <path d="M1262 320L1140 430" stroke="#38BDF8" stroke-width="10" stroke-linecap="round"/>
  <path d="M658 760L780 650" stroke="#38BDF8" stroke-width="10" stroke-linecap="round"/>
  <path d="M1262 760L1140 650" stroke="#38BDF8" stroke-width="10" stroke-linecap="round"/>
  <g opacity="0.92">
    <rect x="398" y="280" width="200" height="82" rx="16" fill="#132540"/>
    <rect x="1322" y="280" width="200" height="82" rx="16" fill="#132540"/>
    <rect x="398" y="718" width="200" height="82" rx="16" fill="#132540"/>
    <rect x="1322" y="718" width="200" height="82" rx="16" fill="#132540"/>
    <path d="M430 344H566" stroke="#67E8F9" stroke-width="8" stroke-linecap="round"/>
    <path d="M1354 344H1490" stroke="#FACC15" stroke-width="8" stroke-linecap="round"/>
    <path d="M430 782H566" stroke="#FB7185" stroke-width="8" stroke-linecap="round"/>
    <path d="M1354 782H1490" stroke="#38BDF8" stroke-width="8" stroke-linecap="round"/>
  </g>
  <circle cx="498" cy="356" r="12" fill="#67E8F9"/>
  <path d="M486 218L510 170L534 218" stroke="#67E8F9" stroke-width="8" stroke-linecap="round" stroke-linejoin="round"/>
  <path d="M1422 202L1454 148L1486 202" stroke="#FACC15" stroke-width="8" stroke-linecap="round" stroke-linejoin="round"/>
  <circle cx="1454" cy="226" r="14" fill="#FACC15"/>
  <path d="M462 770C462 726 498 690 542 690C586 690 622 726 622 770C622 814 586 850 542 850" stroke="#FB7185" stroke-width="10"/>
  <circle cx="1458" cy="758" r="40" fill="none" stroke="#38BDF8" stroke-width="10"/>
  <circle cx="1458" cy="758" r="14" fill="#38BDF8"/>
  <circle cx="1522" cy="406" r="220" fill="#FACC15" fill-opacity="0.06"/>
  <circle cx="406" cy="760" r="200" fill="#FB7185" fill-opacity="0.05"/>
</svg>
